<?xml version="1.0" encoding="utf-8"?>
<!-- Generator: Adobe Illustrator 15.0.2, SVG Export Plug-In . SVG Version: 6.00 Build 0)  -->
<!DOCTYPE svg PUBLIC "-//W3C//DTD SVG 1.1//EN" "http://www.w3.org/Graphics/SVG/1.1/DTD/svg11.dtd">
<svg version="1.1" id="Ebene_1" xmlns="http://www.w3.org/2000/svg" xmlns:xlink="http://www.w3.org/1999/xlink" x="0px" y="0px"
	 width="1133.859px" height="1133.859px" viewBox="0 0 1133.859 1133.859" enable-background="new 0 0 1133.859 1133.859"
	 xml:space="preserve">
<g id="Lines">
</g>
<g id="Ebene_1_1_">
	<rect x="0" y="353.645" fill="#FFFFFF" width="1133.859" height="780.216"/>
	<rect x="0" y="139.661" fill="#E2001A" width="1133.859" height="213.982"/>
	<g>
		<path fill="#FFFFFF" d="M101.336,193.328l18,66h0.302v-66h26.1v107.101h-30.6l-18.602-66.149h-0.301v66.149H70.135V193.328
			H101.336z"/>
		<path fill="#FFFFFF" d="M196.136,296.078c-0.201-1.5-0.4-3.1-0.601-4.801h-0.302c-1.5,3.601-3.876,6.301-7.125,8.102
			c-3.25,1.8-6.976,2.698-11.175,2.698c-4.103,0-7.575-0.523-10.426-1.573c-2.85-1.052-5.175-2.626-6.975-4.727
			c-1.802-2.102-3.103-4.599-3.9-7.5c-0.802-2.898-1.199-6.099-1.199-9.602c0-3.799,0.375-7.099,1.125-9.898
			c0.75-2.799,1.975-5.225,3.675-7.274c1.699-2.049,3.999-3.799,6.899-5.25c2.899-1.447,6.499-2.674,10.801-3.675l10.649-2.551
			c2.898-0.698,4.95-1.726,6.148-3.074c1.2-1.352,1.802-3.273,1.802-5.774c0-4.999-2.303-7.5-6.9-7.5
			c-2.602,0-4.5,0.727-5.699,2.175c-1.2,1.451-1.853,4.327-1.95,8.625h-23.398c0-5.897,1.051-10.624,3.148-14.175
			c2.102-3.549,4.699-6.301,7.802-8.25c3.098-1.95,6.448-3.248,10.05-3.899c3.601-0.648,6.949-0.976,10.051-0.976
			c4.698,0,9.022,0.375,12.975,1.125c3.949,0.75,7.352,2.101,10.2,4.05c2.852,1.95,5.049,4.603,6.602,7.95
			c1.549,3.352,2.323,7.676,2.323,12.976v39.601c0,3.803,0.15,7.149,0.45,10.051c0.3,2.9,0.999,5.398,2.102,7.5h-26.102
			C196.685,299.028,196.335,297.578,196.136,296.078z M186.235,191.228v21h-20.101v-21H186.235z M193.586,281.078
			c1.298-2.198,1.95-5.551,1.95-10.051v-9.75h-0.302c-0.801,1.103-2.023,1.776-3.675,2.023c-1.648,0.252-3.477,0.825-5.476,1.727
			c-2.102,1-3.551,2.324-4.352,3.976c-0.801,1.649-1.198,3.825-1.198,6.524s0.6,4.853,1.8,6.449c1.2,1.603,2.798,2.399,4.8,2.399
			C190.136,284.378,192.285,283.278,193.586,281.078z M213.536,191.228v21h-20.102v-21H213.536z"/>
		<path fill="#FFFFFF" d="M272.636,243.053c-0.301-2.049-0.75-3.725-1.351-5.024c-1.103-2.3-3.103-3.449-6-3.449
			c-1.5,0-2.774,0.375-3.825,1.125c-1.05,0.75-1.875,2.101-2.477,4.05c-0.601,1.95-1.025,4.553-1.273,7.801
			c-0.251,3.251-0.375,7.376-0.375,12.375c0,5.002,0.124,9.127,0.375,12.375c0.248,3.251,0.675,5.826,1.273,7.726
			c0.602,1.9,1.427,3.226,2.477,3.976s2.325,1.125,3.825,1.125c2.498,0,4.425-0.948,5.773-2.851c1.352-1.897,2.024-5.399,2.024-10.5
			v-5.25h24.3c0,6.4-0.551,11.851-1.649,16.351c-1.103,4.5-2.949,8.201-5.55,11.101c-5.101,5.4-13.4,8.103-24.898,8.103
			c-5.201,0-9.952-0.45-14.25-1.353c-4.302-0.897-7.978-2.823-11.024-5.773c-3.053-2.947-5.427-7.101-7.125-12.45
			c-1.701-5.349-2.551-12.424-2.551-21.225c0-9.602,0.949-17.301,2.851-23.102c1.897-5.799,4.476-10.249,7.727-13.351
			c3.248-3.1,7.072-5.148,11.476-6.149c4.398-0.998,9.149-1.5,14.25-1.5c6,0,10.974,0.824,14.925,2.477
			c3.949,1.648,7.101,3.95,9.45,6.898c2.349,2.95,3.998,6.502,4.949,10.649c0.949,4.149,1.426,8.773,1.426,13.875h-24.301
			C273.086,247.778,272.936,245.104,272.636,243.053z"/>
		<path fill="#FFFFFF" d="M331.884,193.328v34.949h0.301c2.299-4.299,5.175-7.224,8.625-8.774c3.449-1.549,6.824-2.324,10.125-2.324
			c2.799,0,5.476,0.352,8.024,1.05c2.55,0.701,4.8,1.9,6.75,3.602c1.949,1.7,3.499,3.976,4.648,6.824
			c1.147,2.851,1.727,6.375,1.727,10.574v61.2h-27v-53.551c0-3.397-0.502-5.851-1.5-7.351c-1.001-1.5-2.7-2.25-5.102-2.25
			c-2.398,0-4.103,0.75-5.101,2.25c-1.001,1.5-1.5,3.951-1.5,7.351v53.551h-27V193.328H331.884L331.884,193.328z"/>
		<path fill="#FFFFFF" d="M404.183,279.728c0.3,1.401,0.799,2.551,1.5,3.45c1.298,1.9,3.198,2.851,5.698,2.851
			c2.102,0,3.925-0.601,5.477-1.801c1.55-1.199,2.325-2.897,2.325-5.101c0-2.399-0.977-4.249-2.927-5.55
			c-1.948-1.3-4.375-2.449-7.273-3.45c-2.9-0.998-6.025-2.049-9.375-3.149c-3.353-1.1-6.477-2.6-9.375-4.5
			c-2.9-1.897-5.324-4.425-7.274-7.574c-1.949-3.149-2.925-7.274-2.925-12.375c0-3.601,0.648-6.924,1.949-9.976
			c1.299-3.05,3.274-5.725,5.926-8.024c2.647-2.3,6-4.1,10.05-5.399c4.051-1.299,8.824-1.949,14.325-1.949
			c20.3,0,30.449,8.501,30.449,25.5h-23.399c0-3.499-0.626-5.873-1.875-7.125c-1.251-1.249-3.024-1.875-5.324-1.875
			c-2.001,0-3.651,0.551-4.949,1.649c-1.301,1.103-1.95,2.649-1.95,4.648c0,2.302,0.976,4.026,2.926,5.176
			c1.949,1.15,4.373,2.176,7.274,3.074c2.897,0.899,6.023,1.853,9.375,2.852c3.349,1.001,6.473,2.426,9.375,4.273
			c2.898,1.853,5.324,4.352,7.274,7.5c1.948,3.149,2.925,7.327,2.925,12.524c0,4.001-0.75,7.649-2.25,10.95
			c-1.5,3.3-3.625,6.148-6.375,8.55c-2.751,2.399-6.149,4.199-10.199,5.399c-4.051,1.199-8.625,1.8-13.727,1.8
			c-11.303,0-19.425-2.25-24.375-6.749c-4.95-4.5-7.425-11.198-7.425-20.102h23.699
			C403.732,276.829,403.882,278.329,404.183,279.728z"/>
		<path fill="#FFFFFF" d="M456.231,219.278v-23.851h27v23.851h10.65v18.149h-10.65v38.699c0,2.303,0.525,3.927,1.575,4.875
			c1.05,0.951,2.675,1.426,4.875,1.426h4.2v18c-2.501,0-5.002,0.075-7.5,0.226c-2.501,0.149-4.9,0.227-7.2,0.227
			c-4.104,0-7.603-0.178-10.5-0.525c-2.901-0.349-5.275-1.223-7.125-2.625c-1.854-1.397-3.201-3.474-4.05-6.226
			c-0.853-2.749-1.275-6.375-1.275-10.875v-43.199h-9V219.28L456.231,219.278L456.231,219.278z"/>
		<path fill="#FFFFFF" d="M524.18,275.078c0,4.4,0.75,7.325,2.25,8.773c1.5,1.451,3.199,2.176,5.101,2.176
			c2.399,0,4.274-0.977,5.625-2.926c1.352-1.949,2.024-5.674,2.024-11.175h24.3c-0.201,10.001-2.751,17.525-7.649,22.574
			c-4.899,5.052-12.95,7.574-24.148,7.574c-6.501,0-11.95-0.727-16.352-2.175c-4.399-1.449-7.948-3.849-10.648-7.199
			c-2.7-3.35-4.626-7.727-5.774-13.125c-1.149-5.399-1.726-11.948-1.726-19.649c0-7.801,0.647-14.399,1.95-19.801
			c1.299-5.399,3.35-9.799,6.148-13.199c2.798-3.398,6.375-5.873,10.727-7.426c4.35-1.549,9.572-2.324,15.675-2.324
			c5.398,0,10.125,0.65,14.175,1.949c4.051,1.302,7.449,3.477,10.2,6.524c2.749,3.052,4.8,7.051,6.148,12
			c1.352,4.949,2.024,11.125,2.024,18.523v8.25h-40.05V275.078z M537.454,236.678c-1.05-1.999-3.024-3-5.925-3
			c-2.801,0-4.726,1.001-5.773,3c-1.052,2.002-1.575,5.15-1.575,9.449v3.601h14.851v-3.601
			C539.03,241.829,538.506,238.68,537.454,236.678z"/>
		<path fill="#FFFFFF" d="M597.076,219.278v12.899h0.303c1.5-4.898,3.898-8.625,7.197-11.176c3.303-2.55,6.949-3.824,10.951-3.824
			h4.352v25.199c-1.201-0.198-2.354-0.351-3.451-0.449c-1.104-0.1-2.199-0.149-3.299-0.149c-4.803,0-8.527,1.051-11.178,3.149
			c-2.648,2.101-3.975,5.851-3.975,11.25v44.25h-27v-81.149H597.076z"/>
		<path fill="#FFFFFF" d="M652.576,217.028v-23.699h69.602v23.699h-21v83.399h-27.898v-83.399H652.576z"/>
		<path fill="#FFFFFF" d="M740.778,275.078c0,4.4,0.75,7.325,2.25,8.773c1.5,1.451,3.199,2.176,5.102,2.176
			c2.398,0,4.273-0.977,5.625-2.926c1.35-1.949,2.023-5.674,2.023-11.175h24.299c-0.199,10.001-2.75,17.525-7.646,22.574
			c-4.902,5.052-12.953,7.574-24.15,7.574c-6.502,0-11.951-0.727-16.35-2.175c-4.402-1.449-7.951-3.849-10.65-7.199
			c-2.701-3.351-4.627-7.727-5.773-13.125c-1.15-5.399-1.727-11.948-1.727-19.649c0-7.801,0.648-14.399,1.949-19.801
			c1.299-5.399,3.35-9.799,6.15-13.199c2.799-3.398,6.375-5.873,10.725-7.426c4.35-1.549,9.574-2.324,15.676-2.324
			c5.4,0,10.125,0.65,14.174,1.949c4.053,1.302,7.449,3.477,10.201,6.524c2.748,3.052,4.799,7.051,6.15,12
			c1.35,4.949,2.021,11.125,2.021,18.523v8.25h-40.049V275.078z M754.054,236.678c-1.051-1.999-3.027-3-5.926-3
			c-2.803,0-4.727,1.001-5.775,3c-1.049,2.002-1.574,5.15-1.574,9.449v3.601h14.852v-3.601
			C755.629,241.829,755.103,238.68,754.054,236.678z"/>
		<path fill="#FFFFFF" d="M813.677,219.278v12.899h0.299c1.5-4.898,3.9-8.625,7.201-11.176c3.299-2.55,6.948-3.824,10.948-3.824
			h4.351v25.199c-1.199-0.198-2.351-0.351-3.449-0.449c-1.102-0.1-2.201-0.149-3.301-0.149c-4.799,0-8.525,1.051-11.174,3.149
			c-2.65,2.101-3.977,5.851-3.977,11.25v44.25h-27v-81.149H813.677z"/>
		<path fill="#FFFFFF" d="M879.074,239.528c-1-1.5-2.698-2.25-5.1-2.25c-2.402,0-4.103,0.75-5.101,2.25
			c-1.002,1.5-1.5,3.951-1.5,7.351v53.551h-27V219.28h26.101v9.899h0.299c3.5-7.999,10.051-12,19.65-12
			c5.6,0,9.875,1.025,12.825,3.074c2.946,2.052,5.272,5.176,6.976,9.375c2.1-4.6,4.973-7.822,8.625-9.675
			c3.647-1.851,7.574-2.774,11.774-2.774c3,0,5.772,0.325,8.323,0.976c2.552,0.651,4.773,1.825,6.677,3.524
			c1.897,1.701,3.397,3.951,4.5,6.75c1.099,2.801,1.647,6.4,1.647,10.8v61.2h-27v-53.551c0-3.397-0.5-5.851-1.5-7.351
			s-2.699-2.25-5.1-2.25c-2.401,0-4.104,0.75-5.102,2.25c-1,1.5-1.5,3.951-1.5,7.351v53.551h-27v-53.551
			C880.574,243.479,880.073,241.028,879.074,239.528z"/>
		<path fill="#FFFFFF" d="M985.274,193.328v20.101h-27v-20.101H985.274z M985.274,219.278v81.149h-27v-81.149H985.274z"/>
		<path fill="#FFFFFF" d="M1022.623,219.278v9.899h0.303c3.498-7.999,10.049-12,19.648-12c3,0,5.773,0.325,8.324,0.976
			c2.551,0.651,4.772,1.825,6.676,3.524c1.898,1.701,3.398,3.951,4.5,6.75c1.1,2.801,1.648,6.4,1.648,10.8v61.2h-27v-53.551
			c0-3.397-0.5-5.851-1.5-7.351s-2.699-2.25-5.101-2.25c-2.4,0-4.103,0.75-5.101,2.25c-1,1.5-1.5,3.951-1.5,7.351v53.551h-27
			v-81.149H1022.623z"/>
	</g>
	<g>
		<g>
			<line fill="none" stroke="#87888A" stroke-width="8" stroke-miterlimit="10" x1="0" y1="360.425" x2="7.5" y2="360.425"/>
			
				<line fill="none" stroke="#87888A" stroke-width="8" stroke-miterlimit="10" stroke-dasharray="14.9181,14.9181" x1="22.418" y1="360.425" x2="1118.901" y2="360.425"/>
			
				<line fill="none" stroke="#87888A" stroke-width="8" stroke-miterlimit="10" x1="1126.36" y1="360.425" x2="1133.86" y2="360.425"/>
		</g>
	</g>
	<rect x="129.017" y="104.492" fill="#9C9E9F" width="25.418" height="35.169"/>
	<rect x="412.262" y="104.492" fill="#9C9E9F" width="25.418" height="35.169"/>
	<rect x="697.009" y="104.492" fill="#9C9E9F" width="25.418" height="35.169"/>
	<rect x="981.755" y="104.492" fill="#9C9E9F" width="25.418" height="35.169"/>
</g>
<g>
	<path d="M277.811,579.734c3.6-17.793,10.397-33,20.4-45.6c9.994-12.6,24-22.294,42-29.1c18-6.797,41.597-10.2,70.8-10.2
		c27.994,0,50.793,3,68.4,9c17.597,6,31.5,14.306,41.7,24.9c10.2,10.603,17.194,22.903,21,36.9c3.797,14.006,5.7,29.006,5.7,45
		c0,28.8-4.8,53.006-14.4,72.6c-9.6,19.604-22.406,37.406-38.4,53.4l-66,64.2c-4.8,4.8-10.106,10.2-15.9,16.2
		c-5.803,6-9.703,12.206-11.7,18.6h146.4v84h-279.6c0-30,4.5-58.294,13.5-84.9c9-26.597,25.697-52.5,50.1-77.699l74.4-75.601
		c10.8-10.8,18.497-21.094,23.1-30.899c4.594-9.797,6.9-22.697,6.9-38.7c0-18-2.606-30.394-7.8-37.2
		c-5.203-6.797-12.207-10.2-21-10.2c-4.003,0-7.8,0.703-11.4,2.1c-3.6,1.407-6.9,4.106-9.9,8.1c-3,4.003-5.4,9.703-7.2,17.1
		c-1.8,7.406-2.7,17.101-2.7,29.101v18h-104.4C272.205,617.234,274.211,597.538,277.811,579.734z"/>
	<path d="M748.205,572.835c-4.406-5.597-11.804-8.4-22.2-8.4c-8.007,0-15.104,3.3-21.3,9.9c-6.207,6.6-9.301,16.706-9.301,30.3v67.8
		h1.2c4.8-10.396,13.697-18.6,26.7-24.6c12.994-6,27.9-9,44.7-9c15.196,0,28.997,2.1,41.399,6.3c12.395,4.2,23.101,11.203,32.101,21
		c9,9.807,15.899,23.006,20.7,39.6c4.8,16.604,7.199,37.304,7.199,62.101c0,28.8-3.103,53.399-9.3,73.8
		c-6.206,20.4-15.403,36.9-27.6,49.5c-12.206,12.6-27.104,21.6-44.7,27c-17.606,5.4-37.8,8.1-60.6,8.1
		c-24.403,0-45.807-2.699-64.2-8.1c-18.403-5.4-33.703-15-45.9-28.8c-12.206-13.8-21.403-32.194-27.6-55.2
		c-6.206-22.997-9.3-51.9-9.3-86.7v-47.399c0-32.794,1.696-61.895,5.1-87.301c3.394-25.396,10.294-46.8,20.7-64.2
		c10.396-17.4,25.2-30.694,44.399-39.9c19.2-9.197,44.598-13.8,76.2-13.8c27.197,0,49.5,3,66.9,9c17.399,6,31.097,14.1,41.1,24.3
		c9.994,10.2,16.894,21.9,20.7,35.1c3.797,13.2,5.7,26.803,5.7,40.8h-104.4C756.201,589.635,753.398,579.238,748.205,572.835z
		 M702.304,844.035c4.594,9.6,12.693,14.399,24.3,14.399c10.397,0,18.197-4.8,23.4-14.399c5.193-9.601,7.8-27.994,7.8-55.2
		c0-27.197-2.307-45.601-6.9-55.2c-4.603-9.6-12.703-14.4-24.3-14.4c-10.406,0-18.206,4.801-23.399,14.4
		c-5.203,9.6-7.801,28.003-7.801,55.2C695.404,816.041,697.701,834.434,702.304,844.035z"/>
</g>
</svg>
