<?xml version="1.0" encoding="UTF-8" standalone="no"?>
<!-- Generator: Adobe Illustrator 16.0.0, SVG Export Plug-In . SVG Version: 6.00 Build 0)  -->

<svg
   xmlns:dc="http://purl.org/dc/elements/1.1/"
   xmlns:cc="http://creativecommons.org/ns#"
   xmlns:rdf="http://www.w3.org/1999/02/22-rdf-syntax-ns#"
   xmlns:svg="http://www.w3.org/2000/svg"
   xmlns="http://www.w3.org/2000/svg"
   xmlns:sodipodi="http://sodipodi.sourceforge.net/DTD/sodipodi-0.dtd"
   xmlns:inkscape="http://www.inkscape.org/namespaces/inkscape"
   version="1.1"
   id="Layer_1"
   x="0px"
   y="0px"
   width="100px"
   height="100px"
   viewBox="0 0 100 100"
   enable-background="new 0 0 100 100"
   xml:space="preserve"
   inkscape:version="0.48.5 r10040"
   sodipodi:docname="cd.svg"><metadata
     id="metadata9"><rdf:RDF><cc:Work
         rdf:about=""><dc:format>image/svg+xml</dc:format><dc:type
           rdf:resource="http://purl.org/dc/dcmitype/StillImage" /></cc:Work></rdf:RDF></metadata><defs
     id="defs7" /><sodipodi:namedview
     pagecolor="#ffffff"
     bordercolor="#666666"
     borderopacity="1"
     objecttolerance="10"
     gridtolerance="10"
     guidetolerance="10"
     inkscape:pageopacity="0"
     inkscape:pageshadow="2"
     inkscape:window-width="934"
     inkscape:window-height="609"
     id="namedview5"
     showgrid="false"
     inkscape:zoom="2.36"
     inkscape:cx="73.655753"
     inkscape:cy="50.649364"
     inkscape:window-x="0"
     inkscape:window-y="26"
     inkscape:window-maximized="0"
     inkscape:current-layer="Layer_1" /><path
     fill="#FFFFFF"
     d="M64.169,77.244v-30.43l17.922-2.906C79.236,28.779,65.959,17.333,50,17.333  c-18.042,0-32.667,14.625-32.667,32.667S31.958,82.667,50,82.667c1.75,0,3.466-0.142,5.141-0.406  c1.311-2.177,3.664-3.924,6.651-4.671C62.581,77.394,63.378,77.278,64.169,77.244z M56.002,19.999l-3.5,15.334h-3.5l-2.5-15.334  C50.169,18.165,56.002,19.999,56.002,19.999z M50,62.128c-6.698,0-12.128-5.43-12.128-12.128S43.302,37.872,50,37.872  S62.128,43.302,62.128,50S56.698,62.128,50,62.128z M50,40.753c-5.1,0-9.247,4.147-9.247,9.247S44.9,59.247,50,59.247  S59.247,55.1,59.247,50S55.1,40.753,50,40.753z M50,56.605c-3.642,0-6.605-2.963-6.605-6.605s2.964-6.605,6.605-6.605  c3.643,0,6.604,2.963,6.604,6.605S53.643,56.605,50,56.605z M54.183,87.896c0.159,0.878,0.507,1.694,1.008,2.427  c-1.701,0.218-3.431,0.343-5.19,0.343C27.577,90.666,9.334,72.423,9.334,50S27.577,9.334,50,9.334  c19.904,0,36.504,14.38,39.984,33.294l-3.948,0.641C82.865,26.256,67.918,13.334,50,13.334c-20.218,0-36.666,16.448-36.666,36.666  S29.782,86.666,50,86.666c1.354,0,2.689-0.079,4.006-0.223C54.018,86.926,54.07,87.411,54.183,87.896z M94.133,44.821v35.258  c0,2.92-2.177,5.249-5.572,6.107c-3.728,0.924-7.327-0.637-8.041-3.494c-0.715-2.863,1.726-5.932,5.453-6.865  c1.684-0.416,3.342-0.331,4.729,0.158V54.743l-19.061,3.484l-0.088,26.426h-0.004c-0.017,2.502-2.273,4.959-5.519,5.762  c-3.683,0.927-7.542-0.826-7.956-3.449c-0.708-2.83,1.706-5.869,5.397-6.793c1.661-0.413,3.284-0.33,4.648,0.148V49.04  L94.133,44.821z"
     id="path3" /><flowRoot
     xml:space="preserve"
     id="flowRoot2986"
     style="fill:black;stroke:none;stroke-opacity:1;stroke-width:1px;stroke-linejoin:miter;stroke-linecap:butt;fill-opacity:1;font-family:Sans;font-style:normal;font-weight:normal;font-size:40px;line-height:125%;letter-spacing:0px;word-spacing:0px"><flowRegion
       id="flowRegion2988"><rect
         id="rect2990"
         width="211.86441"
         height="143.22034"
         x="-52.118645"
         y="0.42372882" /></flowRegion><flowPara
       id="flowPara2992"></flowPara></flowRoot><flowRoot
     xml:space="preserve"
     id="flowRoot2994"
     style="font-size:16px;font-style:normal;font-weight:normal;line-height:125%;letter-spacing:0px;word-spacing:0px;fill:#000000;fill-opacity:1;stroke:none;font-family:Sans"><flowRegion
       id="flowRegion2996"><rect
         id="rect2998"
         width="92.796608"
         height="19.915255"
         x="5.5084743"
         y="77.542374" /></flowRegion><flowPara
       id="flowPara3000"
       style="font-size:9px"><flowSpan
   style="fill:#ffffff;fill-opacity:1"
   id="flowSpan3774">Zum Shop wechseln</flowSpan> wechseln</flowPara></flowRoot><flowRoot
     xml:space="preserve"
     id="flowRoot3780"
     style="fill:black;stroke:none;stroke-opacity:1;stroke-width:1px;stroke-linejoin:miter;stroke-linecap:butt;fill-opacity:1;font-family:Sans;font-style:normal;font-weight:normal;font-size:12px;line-height:125%;letter-spacing:0px;word-spacing:0px"><flowRegion
       id="flowRegion3782"><rect
         id="rect3784"
         width="201.27118"
         height="265.25424"
         x="-43.220341"
         y="-150.42372" /></flowRegion><flowPara
       id="flowPara3786"></flowPara></flowRoot></svg>