<?xml version="1.0" encoding="UTF-8" standalone="no"?>
<!-- Created with Inkscape (http://www.inkscape.org/) -->

<svg
   xmlns:dc="http://purl.org/dc/elements/1.1/"
   xmlns:cc="http://creativecommons.org/ns#"
   xmlns:rdf="http://www.w3.org/1999/02/22-rdf-syntax-ns#"
   xmlns:svg="http://www.w3.org/2000/svg"
   xmlns="http://www.w3.org/2000/svg"
   xmlns:sodipodi="http://sodipodi.sourceforge.net/DTD/sodipodi-0.dtd"
   xmlns:inkscape="http://www.inkscape.org/namespaces/inkscape"
   width="825.09003"
   height="1110.36"
   id="svg3132"
   version="1.1"
   inkscape:version="0.48.5 r10040"
   sodipodi:docname="New document 5">
  <defs
     id="defs3134" />
  <sodipodi:namedview
     id="base"
     pagecolor="#ffffff"
     bordercolor="#666666"
     borderopacity="1.0"
     inkscape:pageopacity="0.0"
     inkscape:pageshadow="2"
     inkscape:zoom="0.35"
     inkscape:cx="375"
     inkscape:cy="520"
     inkscape:document-units="px"
     inkscape:current-layer="layer1"
     showgrid="false"
     width="744.09px"
     inkscape:window-width="945"
     inkscape:window-height="620"
     inkscape:window-x="1"
     inkscape:window-y="75"
     inkscape:window-maximized="0" />
  <metadata
     id="metadata3137">
    <rdf:RDF>
      <cc:Work
         rdf:about="">
        <dc:format>image/svg+xml</dc:format>
        <dc:type
           rdf:resource="http://purl.org/dc/dcmitype/StillImage" />
        <dc:title></dc:title>
      </cc:Work>
    </rdf:RDF>
  </metadata>
  <g
     inkscape:label="Layer 1"
     inkscape:groupmode="layer"
     id="layer1"
     transform="translate(0,58.001358)">
    <g
       id="g7"
       transform="matrix(0.99999854,0.00168179,-0.00168179,0.99999854,-174.96731,-291.01525)">
      <g
         id="g9">
        <path
           clip-rule="evenodd"
           d="m 635.34,406.746 c 4.06,5.461 9.19,5.807 13.343,11.29 3.034,4.008 3.252,9.789 7.184,13.342 6.426,5.812 17.928,5.115 23.605,11.29 5.383,5.854 3.895,15.788 7.185,23.606 4.739,11.267 16.456,17.136 20.527,27.711 23.856,-16.856 33.458,-47.964 36.947,-85.185 -18.609,-27.143 12.03,-41.483 9.237,-67.737 2.416,-5.11 7.332,-7.721 10.264,-12.316 -5.605,-17.55 -0.579,-27.11 11.289,-36.947 15.05,-12.474 40.875,-13.506 52.341,-27.71 24.694,-2.458 38.99,5.485 49.266,17.447 39.942,8.28 39.414,55.474 58.499,92.37 1.974,3.813 5.156,6.087 6.158,9.236 7.447,23.408 -6.832,42.979 -13.341,57.475 -2.703,1.743 -8.793,0.102 -11.29,2.051 3.771,5.081 6.046,12.287 10.266,19.502 7.61,13.017 22.408,23.616 28.733,35.92 23.297,45.311 19.49,121.715 22.579,183.711 0.499,9.993 2.023,22.28 4.107,33.87 2.022,11.249 7.204,24.427 5.128,32.843 -1.564,6.354 -13.104,16.201 -17.446,21.55 -6.83,8.422 -12.65,14.33 -16.42,21.555 2.454,0.623 7.447,-1.288 8.21,1.027 19.4,83.052 25.242,186.838 29.764,286.342 0.831,18.273 0.786,38.548 0,56.446 -0.784,17.824 -4.376,36.026 5.132,46.187 -4.66,8.432 -9.038,15.596 -6.158,29.765 1.107,5.457 4.881,10.869 6.158,16.419 1.75,7.614 -1.563,16.954 5.132,17.448 -2.519,8.977 -11.883,14.216 -19.499,22.581 -9.93,10.904 -14.7,24.132 -34.896,24.629 -7.348,-12.98 -40.451,-0.983 -60.555,-7.183 -1.746,3.042 -1.126,8.451 -2.051,12.317 -15.957,1.081 -28.968,0.848 -46.186,0 -16.328,-0.81 -29.645,-6.138 -45.158,-8.214 -22.304,-2.981 -43.62,4.78 -67.735,0 -2.35,1.759 -0.378,7.836 -1.028,11.29 -5.279,-4.297 -6.926,-12.23 -12.314,-16.42 -24.085,9.783 -64.502,3.233 -96.475,5.13 -0.008,-4.247 2.6,-9.737 0,-13.341 -10.845,-5.925 -22.505,-10.496 -34.894,-6.16 -7.437,2.604 -10.95,11.76 -16.422,14.371 -18.389,8.783 -53.315,-0.645 -67.736,-9.238 -7.403,-4.408 -12.52,-11.905 -25.659,-11.286 -3.072,26.355 3.86,56.573 -32.841,49.262 -4.311,1.504 -3,8.632 -7.185,10.263 -22.086,-1.864 -39.956,-7.939 -57.475,-14.369 -42.938,9.745 -83.798,21.57 -122.131,35.922 -7.26,-18.428 -7.577,-37.117 -12.316,-56.449 -5.521,-22.525 -16.705,-37.559 -17.448,-64.659 -1.932,-2.854 -7.598,-1.979 -10.264,-4.104 -2.278,-57.07 3.774,-117.081 1.026,-177.551 -3.189,-70.245 0.2,-141.894 -6.157,-207.318 -0.484,-4.979 -1.506,-12.286 -3.08,-17.449 -1.852,-6.076 -6.775,-10.524 -9.237,-16.42 -10.208,-24.458 -15.879,-62.052 -13.341,-93.395 2.623,-32.398 4.317,-62.79 8.21,-92.369 1.395,-10.607 6.647,-18.102 10.265,-27.71 6.828,-18.15 8.331,-33.086 28.736,-39 0.134,-5.345 -5.979,-6.138 -5.131,-11.29 2.682,-16.311 40.436,-21.336 52.342,-31.816 -2.913,-10.429 -10.44,-16.244 -13.344,-26.683 -0.454,-2.967 -7.753,0.91 -8.209,-2.055 2.357,-22.73 -4.337,-38.165 -2.052,-58.5 3.781,-33.649 40.585,-64.126 72.868,-67.736 42.935,-4.802 78.353,34.37 81.08,71.842 2.195,30.157 -3.101,58.869 -19.5,80.052 2.77,2.021 8.969,0.613 13.342,1.027 9.583,11.627 21.27,21.151 24.632,39 4.197,4.356 10.248,6.857 15.393,10.263 2.809,-20.306 0.599,-43.715 7.186,-61.579 1.366,-3.703 5.127,-6.838 7.185,-11.29 3.223,-6.97 3.739,-15.481 7.184,-19.499 5.109,-5.96 14.783,-7.244 20.527,-12.316 -5.34,-10.169 2.096,-21.544 2.051,-32.842 11.949,-0.569 27.1,0.832 35.92,0 3.433,-2.527 -0.699,-13.091 -1.024,-18.474 -14.296,-9.244 -31.572,-39.969 -14.369,-58.5 -0.018,-21.295 -1.068,-41.972 5.131,-55.423 5.887,-12.77 25.641,-34.149 41.053,-40.025 15.959,-6.086 50.076,-6.845 65.684,0 17.091,7.494 34.704,28.792 41.055,47.21 6.18,17.937 1.151,37.622 3.076,57.474 1.06,10.907 4.51,26.641 -3.076,39 -5.375,8.744 -17.913,8.278 -21.557,20.522 z M 623.024,386.22 c 9.792,-4.505 14.673,-5.224 18.475,-12.315 4.897,-9.139 0.594,-15.356 0,-24.632 -1.332,-20.772 4.015,-39.718 -3.08,-56.447 -6.05,-14.268 -19.191,-29.159 -33.868,-33.87 -11.578,-3.716 -34.491,-4.009 -46.185,0 -9.615,3.298 -30.202,24.477 -33.869,33.87 -5.324,13.638 0.104,34.775 -3.078,50.289 -1.274,6.199 -6.453,12.619 -6.159,17.449 0.892,14.59 15.394,14.465 20.525,26.684 5.228,12.443 1.943,22.831 2.053,40.026 -9.842,6.013 -23.49,7.266 -39,5.131 -2.935,8.729 1.889,15.875 3.079,23.606 -9.514,5.536 -18.025,12.08 -27.71,17.447 -11.582,23.312 -16.943,52.846 -17.447,87.237 16.237,67.969 30.679,149.756 17.447,229.896 -4.124,24.985 -11.637,49.075 -13.342,72.868 -4.687,65.413 4.225,131.142 9.237,193.976 5.098,63.911 10.342,125.464 2.054,188.841 20.592,-2.03 28.636,11.09 41.052,16.424 10.659,4.575 27.027,9.735 40.026,6.158 7.034,-1.939 13.01,-12.593 20.526,-15.396 14.155,-5.283 33.702,-3.463 47.21,3.08 5.282,2.555 8.768,13.044 16.421,15.393 9.858,3.029 25.048,0 35.922,0 12.223,0 22.862,-0.31 31.816,-4.104 -3.216,-97.26 -7.411,-206.977 -1.026,-307.898 2.132,-33.714 7.218,-67.391 7.184,-98.526 -0.032,-28.831 -8.895,-60.937 -15.394,-86.212 -2.435,-9.463 -6.151,-22.412 -5.133,-28.735 1.261,-7.836 10.236,-17.899 14.37,-24.632 5.377,-8.761 11.89,-16.256 14.368,-24.634 3.815,-12.896 1.026,-30.484 1.026,-45.157 0,-34.805 3.304,-76.307 -5.132,-105.71 -4.03,-14.045 -13.083,-27.764 -20.524,-39 -10.821,-16.337 -27.87,-27.361 -28.738,-51.315 -17.121,-4.432 -28.485,-14.621 -34.896,-29.764 -8.41,0.838 -16.771,7.161 -23.605,6.157 4.353,-16.173 11.441,-29.613 15.395,-46.185 z m 283.265,-33.868 c -4.751,-12.133 -7.385,-31.596 -15.395,-42.08 -4.854,-6.353 -13.43,-7.526 -22.578,-12.316 -10.691,-5.594 -13.065,-13.045 -22.579,-15.395 -16.65,-4.11 -20.082,7.997 -30.79,12.317 -14.846,5.988 -32.258,6.402 -34.895,20.526 -1.58,8.465 4.518,15.935 4.105,25.658 -2.039,3.092 -8.225,2.039 -10.264,5.131 5.294,5.337 -3.31,10.258 -4.105,12.316 -0.856,2.21 0.893,5.267 0,7.183 -3.804,8.16 -13.145,16.184 -13.344,23.605 -0.181,6.769 6.095,10.254 7.186,18.475 -5.952,30.271 -8.969,59.23 -23.605,80.052 -6.505,9.256 -16.775,13.601 -21.555,23.607 23.775,31.783 21.816,109.694 21.555,165.238 -0.172,36.486 -19.692,53.232 -30.791,74.92 7.968,37.65 21.393,76.026 19.502,119.052 -1.857,42.232 -8.212,85.74 -8.212,130.344 0,91.125 -4.708,184.01 4.104,269.924 24.694,4.975 45.744,-2.219 68.764,0 11.081,1.069 22.425,5.828 34.896,7.183 13.013,1.415 25.697,2.696 40.027,2.051 -0.144,-5.271 0.148,-10.11 2.052,-13.34 13.626,-3.738 32.019,3.831 49.263,3.077 14.579,-0.633 27.231,-3.272 35.921,2.055 4.778,-2.063 3.495,-10.191 5.131,-15.393 7.141,-4.942 17.4,-5.341 19.501,-13.345 2.021,-7.694 -5.378,-18.547 -7.184,-26.685 -2.466,-11.119 0.765,-23.558 1.027,-32.842 0.128,-4.598 -1.862,-8.604 -2.056,-13.342 -1.483,-36.859 2.73,-75.969 0.003,-115.975 -5.769,-84.607 -9.412,-173.877 -23.606,-244.265 -24.431,-9.038 -10.476,-28.854 1.025,-44.132 4.478,-5.944 18.284,-17.905 19.5,-25.658 0.902,-5.746 -3.6,-18.018 -5.131,-27.711 -11.111,-70.365 2.364,-155.549 -24.631,-206.291 -9.861,-18.535 -28.673,-27.271 -33.87,-47.21 -4.718,-2.807 -11.48,-3.572 -16.42,-6.157 3.189,-6.392 3.541,-15.618 7.184,-21.554 7.139,-3.124 15.088,-5.438 20.527,-10.263 -0.247,-15.07 -11.469,-27.337 -15.395,-42.079 6.118,3.18 14.909,17.887 18.474,16.421 1.519,-14.399 -7.421,-27.985 -13.341,-43.102 z m -520.345,59.526 c -4.453,-17.138 -24.938,-36.777 -40.026,-42.08 -22.44,-7.885 -46.222,7.56 -58.5,19.501 -16.832,16.365 -20.462,36.334 -16.422,68.762 0.92,3.188 6.095,2.119 6.158,6.159 3.049,19.531 17.438,27.722 18.475,49.265 -13.927,10.36 -30.635,17.943 -48.237,24.631 2.301,1.484 3.534,12.872 4.106,19.5 -10.865,5.719 -23.826,7.639 -29.764,16.42 -2.33,3.445 -3.768,12.011 -6.158,18.474 -2.452,6.627 -6.003,13.804 -7.184,18.473 -7.045,27.856 -6.718,65.358 -9.236,96.475 -0.516,6.356 -3.229,12.689 -3.08,18.473 0.236,9.224 3.819,22.543 6.159,33.87 2.339,11.331 4.68,24.162 8.209,32.843 2.473,6.077 7.161,11.163 9.237,17.446 8.742,26.459 6.135,60.981 7.185,94.419 3.113,99.271 5.062,205.567 2.053,300.716 1.763,3.708 10.289,0.655 10.263,6.157 -1.057,27.658 8.378,42.842 14.369,62.604 4.651,15.343 6.243,29.996 10.263,47.21 23.691,-9.596 54.264,-16.948 81.078,-23.603 9.707,-2.413 20.553,-7.48 28.737,-7.187 16.376,0.592 29.449,12.821 46.185,13.342 4.146,-2.013 3.436,-8.877 7.185,-11.289 6,1.701 16.874,3.416 22.579,2.055 2.663,-44.691 10.377,-90.158 10.263,-135.476 -0.063,-24.684 -3.241,-50.122 -5.133,-74.921 -5.595,-73.374 -17.193,-151.197 -11.289,-227.845 2.423,-31.445 14.682,-64.029 16.422,-95.445 3.818,-68.961 -4.546,-126.521 -17.449,-185.765 -12.917,-6.24 -24.345,-13.972 -35.92,-21.555 1.063,-17.141 -9.67,-22.485 -15.395,-32.841 -16.386,1.335 -21.89,-8.216 -30.789,-14.369 19.542,-20.804 34.774,-59.321 25.656,-94.419 z"
           id="path11"
           inkscape:connector-curvature="0"
           style="fill:#673b15;fill-rule:evenodd" />
        <path
           clip-rule="evenodd"
           d="m 580.945,493.985 c 5.131,0 10.263,0 15.395,0 0,4.104 0,8.208 0,12.314 1.756,2.35 7.834,0.378 11.289,1.027 0,5.132 0,10.263 0,15.396 -3.763,0 -7.527,0 -11.289,0 0,8.209 0,16.42 0,24.63 -5.132,0 -10.263,0 -15.395,0 0,-7.868 0,-15.737 0,-23.604 -1.757,-2.35 -7.835,-0.377 -11.291,-1.026 0,-5.133 0,-10.264 0,-15.396 3.765,0 7.527,0 11.291,0 0,-4.446 0,-8.895 0,-13.341 z"
           id="path13"
           inkscape:connector-curvature="0"
           style="fill:#673b15;fill-rule:evenodd" />
        <path
           clip-rule="evenodd"
           d="m 840.606,529.905 c 5.131,0 10.261,0 15.392,0 0,4.448 0,8.896 0,13.343 1.759,2.348 7.836,0.375 11.29,1.026 0,4.79 0,9.579 0,14.369 -3.763,0 -7.524,0 -11.29,0 0,8.553 0,17.105 0,25.657 -5.131,0 -10.261,0 -15.392,0 0,-8.209 0,-16.419 0,-24.631 -1.758,-2.349 -7.836,-0.376 -11.29,-1.026 0,-4.79 0,-9.579 0,-14.369 3.762,0 7.525,0 11.29,0 0,-4.79 0,-9.579 0,-14.369 z"
           id="path15"
           inkscape:connector-curvature="0"
           style="fill:#673b15;fill-rule:evenodd" />
        <path
           clip-rule="evenodd"
           d="m 317.181,581.221 c 5.13,0 10.263,0 15.395,0 0,4.106 0,8.212 0,12.316 1.755,2.351 7.834,0.375 11.288,1.027 0,4.79 0,9.58 0,14.369 -3.762,0 -7.525,0 -11.288,0 0,8.552 0,17.104 0,25.657 -5.132,0 -10.264,0 -15.395,0 0,-8.21 0,-16.421 0,-24.632 -1.757,-2.348 -7.833,-0.376 -11.291,-1.025 0,-4.789 0,-9.579 0,-14.369 3.763,0 7.527,0 11.291,0 0,-4.448 0,-8.896 0,-13.343 z"
           id="path17"
           inkscape:connector-curvature="0"
           style="fill:#673b15;fill-rule:evenodd" />
      </g>
    </g>
  </g>
</svg>
