<?xml version="1.0" encoding="UTF-8" standalone="no"?>
<!-- Generator: Adobe Illustrator 15.0.2, SVG Export Plug-In . SVG Version: 6.00 Build 0)  -->

<svg
   xmlns:dc="http://purl.org/dc/elements/1.1/"
   xmlns:cc="http://creativecommons.org/ns#"
   xmlns:rdf="http://www.w3.org/1999/02/22-rdf-syntax-ns#"
   xmlns:svg="http://www.w3.org/2000/svg"
   xmlns="http://www.w3.org/2000/svg"
   xmlns:sodipodi="http://sodipodi.sourceforge.net/DTD/sodipodi-0.dtd"
   xmlns:inkscape="http://www.inkscape.org/namespaces/inkscape"
   version="1.1"
   x="0px"
   y="0px"
   width="1133.86px"
   height="1133.86px"
   viewBox="0 0 1133.86 1133.86"
   enable-background="new 0 0 1133.86 1133.86"
   xml:space="preserve"
   id="svg2"
   inkscape:version="0.48.5 r10040"
   sodipodi:docname="kalender.svg"><metadata
     id="metadata68"><rdf:RDF><cc:Work
         rdf:about=""><dc:format>image/svg+xml</dc:format><dc:type
           rdf:resource="http://purl.org/dc/dcmitype/StillImage" /></cc:Work></rdf:RDF></metadata><defs
     id="defs66" /><sodipodi:namedview
     pagecolor="#ffffff"
     bordercolor="#666666"
     borderopacity="1"
     objecttolerance="10"
     gridtolerance="10"
     guidetolerance="10"
     inkscape:pageopacity="0"
     inkscape:pageshadow="2"
     inkscape:window-width="1366"
     inkscape:window-height="712"
     id="namedview64"
     showgrid="false"
     showguides="true"
     inkscape:zoom="0.41627715"
     inkscape:cx="585.958"
     inkscape:cy="467.54791"
     inkscape:window-x="0"
     inkscape:window-y="28"
     inkscape:window-maximized="1"
     inkscape:current-layer="Ebene_1" /><g
     id="Lines" /><g
     id="Ebene_1"><rect
       y="353.645"
       width="1133.86"
       height="780.216"
       id="rect6"
       fill="#FFFFFF" /><rect
       y="139.661"
       fill="#E2001A"
       width="1133.86"
       height="213.983"
       id="rect8" /><g
       id="g10"><path
         fill="#FFFFFF"
         d="M101.336,193.328l18,66h0.301v-66h26.1v107.1h-30.6l-18.601-66.149h-0.3v66.149h-26.1v-107.1H101.336z"
         id="path12" /><path
         fill="#FFFFFF"
         d="M196.136,296.078c-0.201-1.5-0.4-3.099-0.6-4.8h-0.301c-1.5,3.6-3.876,6.3-7.125,8.1    c-3.25,1.8-6.975,2.7-11.175,2.7c-4.102,0-7.575-0.525-10.425-1.575s-5.175-2.625-6.975-4.725c-1.801-2.101-3.102-4.599-3.9-7.5    c-0.802-2.899-1.2-6.099-1.2-9.601c0-3.799,0.375-7.099,1.125-9.899c0.75-2.799,1.974-5.225,3.675-7.275    c1.699-2.049,3.999-3.799,6.9-5.25c2.899-1.448,6.499-2.674,10.8-3.675l10.65-2.55c2.899-0.699,4.95-1.726,6.149-3.075    c1.2-1.351,1.801-3.274,1.801-5.775c0-4.999-2.302-7.5-6.9-7.5c-2.602,0-4.5,0.727-5.7,2.175c-1.2,1.451-1.852,4.327-1.95,8.625    h-23.399c0-5.898,1.05-10.624,3.149-14.175c2.101-3.548,4.699-6.3,7.801-8.25c3.098-1.95,6.449-3.248,10.05-3.899    c3.6-0.649,6.949-0.976,10.05-0.976c4.699,0,9.023,0.375,12.975,1.125c3.949,0.75,7.351,2.101,10.2,4.05    c2.851,1.95,5.049,4.602,6.601,7.95c1.549,3.352,2.324,7.676,2.324,12.976v39.6c0,3.802,0.15,7.15,0.45,10.05    c0.3,2.901,0.999,5.4,2.101,7.5h-26.101C196.685,299.028,196.335,297.578,196.136,296.078z M186.235,191.228v21h-20.1v-21H186.235    z M193.586,281.078c1.298-2.198,1.95-5.55,1.95-10.05v-9.75h-0.301c-0.801,1.102-2.024,1.776-3.675,2.024    c-1.649,0.251-3.476,0.825-5.475,1.726c-2.101,1-3.551,2.324-4.351,3.975c-0.801,1.65-1.199,3.825-1.199,6.525    c0,2.699,0.6,4.852,1.8,6.449c1.2,1.602,2.798,2.4,4.8,2.4C190.136,284.378,192.285,283.278,193.586,281.078z M213.536,191.228v21    h-20.101v-21H213.536z"
         id="path14" /><path
         fill="#FFFFFF"
         d="M272.636,243.053c-0.3-2.048-0.75-3.724-1.35-5.024c-1.102-2.3-3.102-3.45-6-3.45    c-1.5,0-2.775,0.375-3.825,1.125s-1.875,2.1-2.476,4.05c-0.6,1.95-1.026,4.552-1.274,7.8c-0.251,3.251-0.375,7.376-0.375,12.375    c0,5.002,0.124,9.127,0.375,12.375c0.248,3.251,0.675,5.827,1.274,7.726c0.601,1.9,1.426,3.225,2.476,3.975    s2.325,1.125,3.825,1.125c2.498,0,4.425-0.949,5.774-2.85c1.351-1.898,2.025-5.4,2.025-10.5v-5.25h24.3    c0,6.4-0.551,11.85-1.65,16.35c-1.102,4.5-2.95,8.201-5.55,11.1c-5.1,5.4-13.401,8.101-24.899,8.101    c-5.201,0-9.952-0.45-14.25-1.351c-4.301-0.899-7.977-2.824-11.025-5.774c-3.052-2.948-5.426-7.1-7.125-12.45    c-1.701-5.349-2.55-12.424-2.55-21.225c0-9.601,0.949-17.3,2.85-23.101c1.898-5.798,4.475-10.249,7.726-13.35    c3.248-3.099,7.073-5.149,11.475-6.15c4.399-0.998,9.15-1.5,14.25-1.5c6,0,10.974,0.825,14.925,2.476    c3.949,1.649,7.1,3.951,9.45,6.899c2.349,2.951,3.998,6.502,4.95,10.65c0.949,4.15,1.425,8.774,1.425,13.875h-24.3    C273.086,247.778,272.936,245.104,272.636,243.053z"
         id="path16" /><path
         fill="#FFFFFF"
         d="M331.884,193.328v34.95h0.3c2.299-4.299,5.175-7.224,8.625-8.775c3.45-1.549,6.825-2.325,10.125-2.325    c2.799,0,5.475,0.352,8.025,1.05c2.55,0.701,4.8,1.901,6.75,3.601c1.949,1.701,3.499,3.975,4.649,6.825    c1.148,2.85,1.726,6.375,1.726,10.574v61.2h-27v-53.55c0-3.398-0.502-5.85-1.5-7.35c-1.001-1.5-2.7-2.25-5.101-2.25    c-2.399,0-4.102,0.75-5.1,2.25c-1.001,1.5-1.5,3.951-1.5,7.35v53.55h-27v-107.1H331.884z"
         id="path18" /><path
         fill="#FFFFFF"
         d="M404.183,279.728c0.3,1.402,0.799,2.551,1.5,3.45c1.298,1.901,3.199,2.851,5.699,2.851    c2.101,0,3.924-0.601,5.476-1.801c1.549-1.199,2.325-2.898,2.325-5.1c0-2.4-0.976-4.249-2.926-5.55    c-1.949-1.299-4.375-2.449-7.274-3.45c-2.901-0.998-6.026-2.049-9.375-3.15c-3.352-1.099-6.476-2.599-9.375-4.5    c-2.901-1.898-5.325-4.425-7.275-7.574c-1.95-3.15-2.925-7.275-2.925-12.375c0-3.601,0.649-6.924,1.95-9.976    c1.298-3.049,3.274-5.724,5.925-8.024c2.648-2.3,6-4.1,10.05-5.4c4.05-1.299,8.824-1.95,14.325-1.95    c20.299,0,30.45,8.501,30.45,25.5h-23.4c0-3.499-0.626-5.873-1.875-7.125c-1.251-1.249-3.025-1.875-5.325-1.875    c-2.001,0-3.651,0.551-4.949,1.65c-1.301,1.102-1.95,2.65-1.95,4.649c0,2.302,0.975,4.027,2.925,5.176    c1.95,1.15,4.373,2.175,7.275,3.074c2.898,0.9,6.023,1.852,9.375,2.851c3.349,1.001,6.473,2.426,9.375,4.274    c2.898,1.852,5.324,4.351,7.274,7.5c1.95,3.15,2.925,7.327,2.925,12.525c0,4.001-0.75,7.65-2.25,10.95s-3.625,6.149-6.375,8.55    c-2.751,2.4-6.149,4.2-10.199,5.4c-4.051,1.199-8.625,1.8-13.726,1.8c-11.302,0-19.425-2.25-24.375-6.75    s-7.425-11.198-7.425-20.101h23.7C403.732,276.829,403.882,278.329,404.183,279.728z"
         id="path20" /><path
         fill="#FFFFFF"
         d="M456.231,219.278v-23.851h27v23.851h10.65v18.149h-10.65v38.7c0,2.302,0.525,3.926,1.575,4.875    c1.05,0.951,2.675,1.425,4.875,1.425h4.2v18c-2.501,0-5.002,0.075-7.5,0.226c-2.501,0.149-4.9,0.225-7.2,0.225    c-4.102,0-7.601-0.176-10.5-0.525c-2.901-0.349-5.275-1.223-7.125-2.625c-1.852-1.398-3.201-3.473-4.05-6.225    c-0.851-2.749-1.275-6.375-1.275-10.875v-43.2h-9v-18.149H456.231z"
         id="path22" /><path
         fill="#FFFFFF"
         d="M524.18,275.078c0,4.401,0.75,7.326,2.25,8.774c1.5,1.451,3.199,2.176,5.101,2.176    c2.399,0,4.274-0.976,5.625-2.926c1.35-1.949,2.024-5.674,2.024-11.175h24.3c-0.201,10.001-2.751,17.526-7.649,22.575    c-4.901,5.051-12.952,7.575-24.15,7.575c-6.501,0-11.95-0.727-16.35-2.175c-4.401-1.449-7.95-3.849-10.65-7.2    c-2.7-3.35-4.626-7.726-5.774-13.125c-1.151-5.4-1.726-11.948-1.726-19.65c0-7.8,0.649-14.399,1.95-19.8    c1.299-5.4,3.35-9.799,6.15-13.2c2.798-3.398,6.375-5.873,10.725-7.425c4.35-1.549,9.574-2.325,15.675-2.325    c5.4,0,10.125,0.651,14.175,1.95c4.051,1.301,7.449,3.476,10.2,6.525c2.749,3.051,4.8,7.05,6.15,12    c1.35,4.949,2.024,11.125,2.024,18.524v8.25h-40.05V275.078z M537.455,236.678c-1.05-1.999-3.026-3-5.925-3    c-2.801,0-4.726,1.001-5.775,3c-1.05,2.002-1.575,5.151-1.575,9.45v3.6h14.851v-3.6    C539.03,241.829,538.505,238.68,537.455,236.678z"
         id="path24" /><path
         fill="#FFFFFF"
         d="M597.077,219.278v12.899h0.301c1.5-4.898,3.9-8.625,7.199-11.175c3.301-2.55,6.949-3.825,10.951-3.825    h4.35v25.2c-1.201-0.199-2.352-0.35-3.451-0.45c-1.102-0.099-2.199-0.149-3.299-0.149c-4.801,0-8.527,1.05-11.176,3.149    c-2.65,2.101-3.975,5.851-3.975,11.25v44.25h-27v-81.149H597.077z"
         id="path26" /><path
         fill="#FFFFFF"
         d="M652.577,217.028v-23.7h69.6v23.7h-21v83.399h-27.898v-83.399H652.577z"
         id="path28" /><path
         fill="#FFFFFF"
         d="M740.778,275.078c0,4.401,0.75,7.326,2.25,8.774c1.5,1.451,3.199,2.176,5.1,2.176    c2.4,0,4.275-0.976,5.625-2.926c1.35-1.949,2.025-5.674,2.025-11.175h24.299c-0.201,10.001-2.75,17.526-7.648,22.575    c-4.902,5.051-12.953,7.575-24.15,7.575c-6.502,0-11.951-0.727-16.35-2.175c-4.402-1.449-7.951-3.849-10.65-7.2    c-2.701-3.35-4.627-7.726-5.775-13.125c-1.15-5.4-1.725-11.948-1.725-19.65c0-7.8,0.648-14.399,1.949-19.8    c1.299-5.4,3.35-9.799,6.15-13.2c2.799-3.398,6.375-5.873,10.725-7.425c4.35-1.549,9.574-2.325,15.676-2.325    c5.4,0,10.125,0.651,14.174,1.95c4.051,1.301,7.449,3.476,10.201,6.525c2.748,3.051,4.799,7.05,6.15,12    c1.35,4.949,2.023,11.125,2.023,18.524v8.25h-40.049V275.078z M754.054,236.678c-1.051-1.999-3.027-3-5.926-3    c-2.801,0-4.725,1.001-5.775,3c-1.049,2.002-1.574,5.151-1.574,9.45v3.6h14.85v-3.6    C755.628,241.829,755.103,238.68,754.054,236.678z"
         id="path30" /><path
         fill="#FFFFFF"
         d="M813.677,219.278v12.899h0.299c1.5-4.898,3.9-8.625,7.201-11.175c3.299-2.55,6.949-3.825,10.949-3.825    h4.35v25.2c-1.199-0.199-2.35-0.35-3.449-0.45c-1.102-0.099-2.201-0.149-3.301-0.149c-4.799,0-8.525,1.05-11.174,3.149    c-2.65,2.101-3.975,5.851-3.975,11.25v44.25h-27v-81.149H813.677z"
         id="path32" /><path
         fill="#FFFFFF"
         d="M879.075,239.528c-1-1.5-2.699-2.25-5.1-2.25s-4.102,0.75-5.1,2.25c-1.002,1.5-1.5,3.951-1.5,7.35v53.55    h-27v-81.149h26.1v9.899h0.299c3.5-7.999,10.051-12,19.65-12c5.6,0,9.875,1.026,12.826,3.075c2.947,2.051,5.273,5.175,6.975,9.375    c2.1-4.599,4.973-7.823,8.625-9.675c3.648-1.85,7.574-2.775,11.775-2.775c3,0,5.773,0.326,8.324,0.976    c2.551,0.651,4.773,1.825,6.676,3.524c1.898,1.702,3.398,3.952,4.5,6.75c1.098,2.801,1.648,6.401,1.648,10.8v61.2h-27v-53.55    c0-3.398-0.5-5.85-1.5-7.35s-2.699-2.25-5.1-2.25s-4.102,0.75-5.1,2.25c-1,1.5-1.5,3.951-1.5,7.35v53.55h-27v-53.55    C880.575,243.479,880.073,241.028,879.075,239.528z"
         id="path34" /><path
         fill="#FFFFFF"
         d="M985.274,193.328v20.1h-27v-20.1H985.274z M985.274,219.278v81.149h-27v-81.149H985.274z"
         id="path36" /><path
         fill="#FFFFFF"
         d="M1022.624,219.278v9.899h0.301c3.498-7.999,10.049-12,19.65-12c3,0,5.773,0.326,8.324,0.976    c2.551,0.651,4.773,1.825,6.676,3.524c1.898,1.702,3.398,3.952,4.5,6.75c1.098,2.801,1.648,6.401,1.648,10.8v61.2h-27v-53.55    c0-3.398-0.5-5.85-1.5-7.35s-2.699-2.25-5.1-2.25s-4.102,0.75-5.1,2.25c-1,1.5-1.5,3.951-1.5,7.35v53.55h-27v-81.149H1022.624z"
         id="path38" /></g><g
       id="g40"><path
         d="M280.067,544.494c28.498-26.943,71-40.426,127.497-40.426c33.684,0,61.671,3.377,83.961,10.106    c22.278,6.742,40.037,16.593,53.253,29.542c13.216,12.96,22.545,28.898,27.987,47.81c5.441,18.926,8.162,40.561,8.162,64.915    c0,10.884-1.299,22.156-3.887,33.817c-2.6,11.661-6.875,22.546-12.827,32.652c-5.964,10.106-13.873,19.047-23.711,26.821    c-9.852,7.773-22.035,13.216-36.539,16.325v1.556c32.129,6.219,54.674,20.346,67.636,42.369    c12.947,22.034,19.436,48.078,19.436,78.131c0,62.193-15.039,106.895-45.091,134.104c-30.064,27.21-74.899,40.814-134.493,40.814    c-31.097,0-58.185-2.6-81.24-7.774c-23.067-5.175-42.114-14.504-57.141-27.987c-15.038-13.472-26.177-31.485-33.429-54.03    c-7.264-22.546-10.884-50.399-10.884-83.572h135.271c0,15.548,0.899,28.509,2.721,38.871c1.81,10.373,4.276,19.18,7.385,26.432    c6.22,13.483,17.104,20.213,32.652,20.213c8.284,0,15.025-1.166,20.212-3.498c5.175-2.332,9.195-6.729,12.05-13.217    c2.843-6.475,4.787-15.281,5.831-26.432c1.033-11.14,1.555-25.267,1.555-42.369c0-26.942-4.276-45.091-12.828-54.42    c-8.551-9.328-21.901-13.993-40.037-13.993h-36.538v-90.182h20.99c10.884,0,20.213-1.032,27.987-3.109    c7.774-2.064,14.249-5.952,19.435-11.661c5.175-5.697,9.062-13.604,11.662-23.711c2.587-10.106,3.887-23.188,3.887-39.26    c0-23.323-2.988-38.993-8.94-47.033c-5.964-8.03-15.16-12.05-27.598-12.05c-13.994,0-23.979,5.441-29.931,16.324    c-5.964,10.885-8.94,30.843-8.94,59.862H234.977C236.532,612.906,251.557,570.926,280.067,544.494z"
         id="path42"
         fill="#1A1619" /><path
         d="M760.504,679.765H656.328v-90.182c22.279,0,41.459-1.42,57.529-4.275    c16.059-2.842,29.797-7.507,41.203-13.993c11.395-6.475,20.723-15.281,27.988-26.433c7.252-11.139,13.215-24.744,17.881-40.814    h104.174v550.413h-144.6V679.765z"
         id="path44"
         fill="#1A1619" /></g><g
       id="g46"><g
         id="g48"><line
           fill="none"
           stroke="#87888A"
           stroke-width="8"
           stroke-miterlimit="10"
           x1="0"
           y1="360.424"
           x2="7.5"
           y2="360.424"
           id="line50" /><line
           fill="none"
           stroke="#87888A"
           stroke-width="8"
           stroke-miterlimit="10"
           stroke-dasharray="14.9181,14.9181"
           x1="22.418"
           y1="360.424"
           x2="1118.901"
           y2="360.424"
           id="line52" /><line
           fill="none"
           stroke="#87888A"
           stroke-width="8"
           stroke-miterlimit="10"
           x1="1126.36"
           y1="360.424"
           x2="1133.86"
           y2="360.424"
           id="line54" /></g></g><rect
       x="129.017"
       y="104.492"
       fill="#9C9E9F"
       width="25.418"
       height="35.169"
       id="rect56" /><rect
       x="412.262"
       y="104.492"
       fill="#9C9E9F"
       width="25.418"
       height="35.169"
       id="rect58" /><rect
       x="697.008"
       y="104.492"
       fill="#9C9E9F"
       width="25.418"
       height="35.169"
       id="rect60" /><rect
       x="981.754"
       y="104.492"
       fill="#9C9E9F"
       width="25.418"
       height="35.169"
       id="rect62" /></g></svg>