<?xml version="1.0" encoding="utf-8"?>
<!-- Generator: Adobe Illustrator 15.0.2, SVG Export Plug-In . SVG Version: 6.00 Build 0)  -->
<!DOCTYPE svg PUBLIC "-//W3C//DTD SVG 1.1//EN" "http://www.w3.org/Graphics/SVG/1.1/DTD/svg11.dtd">
<svg version="1.1" id="Ebene_1" xmlns="http://www.w3.org/2000/svg" xmlns:xlink="http://www.w3.org/1999/xlink" x="0px" y="0px"
	 width="850.39px" height="850.39px" viewBox="0 0 850.39 850.39" enable-background="new 0 0 850.39 850.39" xml:space="preserve">
<rect y="105.191" fill="#FFFFFF" width="850.402" height="745.198"/>
<rect y="105.191" opacity="0.53" fill="#CDB54F" enable-background="new    " width="850.402" height="745.198"/>
<g>
	<g>
		<path d="M172.638,727.427c-1.568-2.668,1.377-3.86,2.984-4.975c5.175-3.588,10.664-6.934,15.589-10.78
			c6.498-5.074,12.501-11.298,16.916-18.241c4.267-6.711,8.343-15.37,9.453-25.704c1.15-10.722-1.317-21.482-8.623-25.871
			c-7.547-4.533-20.225-0.914-24.546,4.477c-1.89,2.36-4.321,7.355,0.83,7.298c2.32-0.024,3.746-1.141,6.634-0.829
			c7.065,0.762,11.842,9.811,5.804,16.086c-6.725,6.992-21.527,2.795-22.72-7.131c-0.451-3.747,0.354-8.006,1.658-10.778
			c3.84-8.167,14.446-13.852,24.543-14.595c9.817-0.722,17.044,2.416,22.224,6.633c3.931,3.204,7.503,7.927,9.286,13.102
			c4.371,12.677-1.305,26.48-7.462,34.495c-11.445,14.895-27.443,24.618-45.109,33.499
			C177.674,725.33,175.284,726.806,172.638,727.427z"/>
		<path d="M243.616,645.171c4.345-0.747,9.359,3.273,7.132,8.79c-2.378,5.886-12.514,4.421-12.272-2.983
			C238.581,647.755,240.049,645.786,243.616,645.171z"/>
		<path d="M243.45,670.213c5.045-0.922,9.361,3.518,7.297,8.79c-2.623,6.697-14.995,3.462-11.94-5.142
			C239.337,672.369,240.794,670.699,243.45,670.213z"/>
	</g>
</g>
<g>
	<rect x="106.756" y="425.646" width="743.646" height="3.564"/>
</g>
<g>
	<rect x="106.756" y="450.69" width="743.646" height="3.564"/>
</g>
<g>
	<rect x="106.756" y="476.277" width="743.646" height="3.563"/>
</g>
<g>
	<rect x="106.756" y="501.789" width="743.646" height="3.564"/>
</g>
<g>
	<rect x="106.756" y="527.376" width="743.646" height="3.563"/>
</g>
<g>
	<rect x="106.771" y="637.823" width="743.668" height="3.539"/>
</g>
<g>
	<rect x="106.771" y="662.694" width="743.668" height="3.539"/>
</g>
<g>
	<rect x="106.771" y="688.104" width="743.668" height="3.539"/>
</g>
<g>
	<rect x="106.771" y="713.44" width="743.668" height="3.539"/>
</g>
<g>
	<rect x="106.771" y="738.85" width="743.668" height="3.539"/>
</g>
<g>
	<g id="XMLID_2_">
		<path d="M209.657,473.242c-1.694-5.927-2.442-12.808-4.201-18.671c11.8-10.573,19.903-29.846,18.205-53.213
			c-0.737-10.11-3.562-19.685-10.736-24.273h-2.8c-13.748,6.937-16.25,29.066-13.07,48.546c0.578,3.552,2.283,8.957,1.867,11.67
			c-0.49,3.211-5.948,7.104-8.869,10.269c-9.434,10.223-18.728,19.983-21.472,36.408v8.87c3.379,23.824,18.582,40.361,47.611,35.476
			c0.617,9.182,6.7,24.3,2.801,34.074c-3.025,7.585-18.811,13.616-22.872,3.735c13.285-2.399,10.372-21.025-1.867-20.539
			c-6.722,0.266-12.921,7.599-10.269,17.27c2.077,7.581,10.223,10.388,18.671,12.605h6.069c21.393-1.654,15.979-31.709,11.67-48.547
			c9.741-3.949,16.052-11.334,18.204-22.872v-7.936C235.7,481.92,227.344,471.142,209.657,473.242z M219.461,521.787
			c-2.194-12.121-5.285-23.342-7.002-35.941C230.929,485.263,234.56,515.863,219.461,521.787z M209.657,396.223
			c1.27-1.037,3.347-1.62,6.068-1.401c9.691,13.425-5.69,33.563-14.003,39.21C199.482,421.29,201.666,402.744,209.657,396.223z
			 M176.982,495.648c-0.022-19.218,15.591-29.17,24.74-38.276c2.801,4.359,2.427,11.89,4.202,17.271
			c-19.513,4.99-21.818,37.03-0.467,42.012c-0.966-4.258-6.688-7.269-7.468-13.538c-1.018-8.183,3.29-13.98,10.268-16.336
			c2.329,12.453,5.116,24.444,7.002,37.342C192.051,529.274,177.001,513.587,176.982,495.648z"/>
	</g>
</g>
<g>
	<path fill="#8D7E38" d="M106.441,315.597h26.365V153.129h-26.365v-3.326h53.443l43.942,127.789h0.476l43.942-127.789h52.493v3.326
		h-26.365v162.468h26.365v3.325h-76.483v-3.325h26.365V154.554h-0.476l-56.769,164.606l-56.531-162.944h-0.476v159.38h26.366v3.325
		h-56.294L106.441,315.597L106.441,315.597z"/>
	<path fill="#8D7E38" d="M442.064,318.922h-38.242v-23.99h-0.475c-1.425,3.169-3.13,6.375-5.106,9.62
		c-1.982,3.248-4.436,6.176-7.364,8.789c-2.931,2.613-6.335,4.751-10.214,6.414c-3.881,1.663-8.432,2.494-13.658,2.494
		c-6.334,0-11.483-0.712-15.438-2.138c-3.959-1.425-7.047-2.929-9.264-4.513c-1.109-0.791-2.338-1.782-3.681-2.969
		c-1.348-1.187-2.577-2.81-3.683-4.87c-1.109-2.056-2.06-4.709-2.849-7.958c-0.795-3.244-1.188-7.245-1.188-11.995v-67.458h-18.29
		v-3.326h38.717v72.921c0,4.12,0.275,7.92,0.831,11.401c0.553,3.484,1.622,6.532,3.208,9.145c1.581,2.612,3.64,4.672,6.174,6.175
		c2.531,1.507,5.857,2.257,9.978,2.257c3.48,0,7.083-1.028,10.807-3.088c3.718-2.056,7.126-4.988,10.213-8.789
		c3.088-3.8,5.66-8.35,7.72-13.658c2.055-5.303,3.088-11.282,3.088-17.933v-55.106h-18.051v-3.326h38.479v98.574h18.29
		L442.064,318.922L442.064,318.922z"/>
	<path fill="#8D7E38" d="M461.063,285.668h2.613c1.105,3.801,2.53,7.642,4.274,11.521c1.74,3.881,4.075,7.444,7.008,10.688
		c2.927,3.247,6.531,5.902,10.806,7.957c4.275,2.06,9.421,3.088,15.44,3.088c5.065,0,9.579-1.544,13.538-4.632
		c3.957-3.088,5.938-8.113,5.938-15.083c0-6.016-1.544-10.25-4.632-12.708c-3.088-2.454-6.691-4.395-10.807-5.82l-18.526-6.413
		c-2.376-0.791-4.953-1.781-7.721-2.968c-2.771-1.188-5.344-2.85-7.719-4.989c-2.376-2.138-4.317-4.869-5.819-8.193
		c-1.509-3.326-2.259-7.602-2.259-12.827c0-4.431,0.87-8.551,2.613-12.351c1.74-3.801,4.117-7.126,7.126-9.977
		c3.006-2.85,6.609-5.066,10.808-6.651c4.194-1.581,8.748-2.375,13.658-2.375c3.481,0,6.294,0.278,8.432,0.831
		c2.138,0.556,3.997,1.11,5.582,1.663c1.581,0.557,3.006,1.109,4.274,1.663c1.266,0.557,2.769,0.831,4.515,0.831
		c1.739,0,3.006-0.631,3.799-1.9h2.612v27.079h-2.612c-1.109-3.482-2.375-6.847-3.799-10.095c-1.427-3.244-3.131-6.134-5.108-8.67
		c-1.981-2.531-4.435-4.513-7.363-5.938c-2.932-1.425-6.376-2.138-10.331-2.138c-7.601,0-13.502,1.703-17.696,5.108
		c-4.197,3.406-6.295,7.957-6.295,13.657c0,5.07,1.781,8.907,5.344,11.52c3.563,2.613,8.826,5.029,15.796,7.245l17.34,5.7
		c7.441,2.535,13.54,6.02,18.291,10.452c4.749,4.435,7.125,10.295,7.125,17.577c0,4.275-0.832,8.473-2.495,12.589
		c-1.662,4.119-4.119,7.719-7.362,10.807c-3.248,3.088-7.206,5.583-11.877,7.482c-4.672,1.9-10.016,2.85-16.032,2.85
		c-3.485,0-6.692-0.357-9.62-1.069c-2.933-0.712-5.623-1.465-8.076-2.256c-2.457-0.791-4.713-1.544-6.77-2.257
		c-2.06-0.712-3.96-1.068-5.7-1.068c-1.745,0-3.011,0.356-3.801,1.068c-0.794,0.713-1.424,1.466-1.899,2.257h-2.612V285.668
		L461.063,285.668z"/>
	<path fill="#8D7E38" d="M555.598,315.597h18.289v-95.249h-18.289v-3.326h38.717v98.574h18.289v3.325h-57.006V315.597
		L555.598,315.597z M571.037,161.68c0-3.481,1.224-6.451,3.682-8.907c2.453-2.453,5.421-3.682,8.906-3.682
		c3.483,0,6.451,1.229,8.907,3.682c2.454,2.457,3.683,5.426,3.683,8.907c0,3.484-1.229,6.454-3.683,8.907
		c-2.456,2.457-5.424,3.682-8.907,3.682c-3.485,0-6.453-1.225-8.906-3.682C572.261,168.134,571.037,165.165,571.037,161.68z"/>
	<path fill="#8D7E38" d="M625.903,315.597h18.289V150.991h-18.289v-3.326h38.717v113.537h2.612l47.269-40.854h-16.866v-3.326h36.817
		v3.326H720.2l-37.054,31.829l52.493,63.42h10.213v3.325H692.41v-3.325h16.862l-42.041-51.068h-2.612v51.068h13.063v3.325h-51.78
		L625.903,315.597L625.903,315.597z"/>
</g>
</svg>
