<?xml version="1.0" encoding="utf-8"?>
<!-- Generator: Adobe Illustrator 16.0.4, SVG Export Plug-In . SVG Version: 6.00 Build 0)  -->
<!DOCTYPE svg PUBLIC "-//W3C//DTD SVG 1.1//EN" "http://www.w3.org/Graphics/SVG/1.1/DTD/svg11.dtd">
<svg version="1.1" id="Layer_1" xmlns="http://www.w3.org/2000/svg" xmlns:xlink="http://www.w3.org/1999/xlink" x="0px" y="0px"
	 width="26px" height="26px" viewBox="0 0 26 26" enable-background="new 0 0 26 26" xml:space="preserve">
<path fill="#FFFFFF" d="M18.145,15.133L8.013,5.001l0.724-0.723L18.868,14.41L18.145,15.133z M5.255,7.762l10.129,10.129
	l1.832-1.832L7.087,5.93L5.255,7.762z M4.33,8.687L3.42,9.596l10.127,10.132l0.909-0.909L4.33,8.687z M19.566,15.107l-5.318,5.32
	l5.174,2.26l2.407-2.405L19.566,15.107z M23.706,24.047l-1.207-2.761c-0.054-0.119-0.16-0.205-0.288-0.229
	c-0.129-0.023-0.258,0.018-0.352,0.108l-1.555,1.556c-0.092,0.092-0.133,0.223-0.107,0.352c0.023,0.127,0.109,0.234,0.229,0.287
	l2.762,1.205c0.147,0.065,0.32,0.033,0.437-0.08C23.736,24.368,23.771,24.195,23.706,24.047z M7.873,3.414L5.975,1.517
	c-0.154-0.154-0.403-0.154-0.556,0L0.657,6.278c-0.154,0.154-0.154,0.403,0,0.557l1.897,1.896c0.154,0.154,0.403,0.154,0.557,0
	L7.873,3.97C8.026,3.816,8.026,3.567,7.873,3.414z"/>
</svg>
