<?xml version="1.0" encoding="utf-8"?>
<!-- Generator: Adobe Illustrator 15.0.2, SVG Export Plug-In . SVG Version: 6.00 Build 0)  -->
<!DOCTYPE svg PUBLIC "-//W3C//DTD SVG 1.1//EN" "http://www.w3.org/Graphics/SVG/1.1/DTD/svg11.dtd">
<svg version="1.1" id="Ebene_1" xmlns="http://www.w3.org/2000/svg" xmlns:xlink="http://www.w3.org/1999/xlink" x="0px" y="0px"
	 width="850.39px" height="850.39px" viewBox="0 0 850.39 850.39" enable-background="new 0 0 850.39 850.39" xml:space="preserve">
<path fill="#CA9E64" d="M850.133,120.533l-15.795-14.761l-16.052,15l-16.049-15l-16.049,15l-16.049-15l-16.049,15l-16.047-15
	l-16.046,15l-16.044-15l-16.048,15l-16.046-15l-16.046,15l-16.045-15l-16.048,15l-16.046-15l-16.048,15l-16.046-15l-16.045,15
	l-16.044-15l-16.046,15l-16.044-15l-16.046,15l-16.046-15l-16.044,15l-16.044-15l-16.044,15l-16.043-15l-16.045,15l-16.042-15
	l-16.046,15l-16.042-15l-16.044,15l-16.042-15l-16.042,15l-16.043-15l-16.041,15l-16.043-15l-16.044,15l-16.045-15l-16.044,15
	l-16.044-15l-16.045,15l-16.044-15l-16.045,15l-16.043-15l-16.045,15l-16.043-15l-16.044,15l-16.043-15l-16.045,15l-16.043-15
	l-16.044,15L0,105.772V850.39h850.39V120.258L850.133,120.533z M583.932,297.072c0,4.971-4.03,9-9,9H274.573c-4.97,0-9-4.029-9-9
	v-57.371c0-4.971,4.03-9,9-9h300.358c4.97,0,9,4.029,9,9V297.072z"/>
<g>
	<rect y="473.688" fill="none" width="850.39" height="376.702"/>
	<path fill="#B07F48" d="M130.115,635.543c16.47,13.995,36.067,21.091,58.788,21.285c26.884-0.389,40.516-10.311,40.896-29.761
		c0.194-15.931-8.794-25.509-26.965-28.736c-8.327-1.172-17.457-2.492-27.39-3.96c-17.789-3.027-31.317-9.821-40.587-20.377
		c-9.558-10.849-14.335-24.044-14.335-39.585c0-18.667,6.001-33.721,18.004-45.155c11.623-11.339,28.113-17.104,49.472-17.302
		c25.706,0.586,48.056,7.94,67.053,22.062l-17.461,26.591c-15.523-10.567-32.606-16.047-51.251-16.44
		c-9.654,0-17.697,2.492-24.133,7.478c-6.72,5.182-10.176,12.902-10.364,23.165c0,6.157,2.316,11.728,6.954,16.713
		c4.637,5.083,12.064,8.602,22.281,10.556c5.676,0.978,13.433,2.102,23.275,3.372c19.396,2.737,33.728,9.922,43,21.551
		c9.178,11.438,13.767,24.73,13.767,39.878c-1.039,40.857-25.236,61.578-72.589,62.164c-30.625,0-56.948-9.716-78.971-29.152
		L130.115,635.543z"/>
	<path fill="#B07F48" d="M297.036,473.71H326.6v77.637h0.565c9.734-12.012,22.492-18.018,38.275-18.018
		c12.19,0,23.344,4.445,33.458,13.33c10.016,8.985,15.262,22.169,15.735,39.551v101.073h-29.562V596.64
		c0-10.656-2.745-18.772-8.233-24.349c-5.393-5.671-12.348-8.507-20.862-8.507c-8.517,0-15.518,2.836-21.004,8.507
		c-5.585,5.576-8.375,13.692-8.375,24.349v90.644h-29.562V473.71z"/>
	<path fill="#B07F48" d="M450.843,611.111c0-16.044,1.277-28.369,3.831-36.979c2.648-8.411,6.716-15.505,12.202-21.277
		c4.067-5.051,9.743-9.569,17.026-13.552c7.189-3.788,16.413-5.779,27.669-5.974c11.635,0.197,21.046,2.197,28.237,6.006
		c7.093,4.005,12.579,8.546,16.459,13.623c5.846,5.763,9.993,12.843,12.446,21.24c2.357,8.594,3.536,20.898,3.536,36.913
		c0,16.018-1.184,28.224-3.545,36.621c-2.459,8.4-6.619,15.674-12.481,21.826c-1.893,2.248-4.209,4.445-6.951,6.592
		c-2.458,2.442-5.626,4.541-9.503,6.299c-7.187,4.2-16.594,6.395-28.223,6.592c-11.252-0.197-20.472-2.392-27.658-6.592
		c-7.281-3.809-12.955-8.104-17.02-12.891c-5.484-6.152-9.552-13.426-12.197-21.826
		C452.117,639.335,450.843,627.129,450.843,611.111z M542.688,611.404c0-10.876-0.474-18.812-1.421-23.81
		c-0.95-4.803-2.894-9.016-5.832-12.642c-2.179-3.429-5.401-6.122-9.668-8.084c-4.078-2.056-8.818-3.085-14.22-3.085
		c-5.026,0-9.671,1.029-13.937,3.087c-4.077,1.96-7.394,4.653-9.952,8.082c-2.562,3.628-4.41,7.842-5.546,12.642
		c-1.14,4.998-1.707,12.838-1.707,23.517c0,10.584,0.567,18.324,1.707,23.223c1.136,4.999,2.984,9.407,5.546,13.229
		c2.559,2.938,5.875,5.536,9.952,7.789c4.266,2.155,8.91,3.233,13.937,3.233c5.401,0,10.142-1.078,14.22-3.233
		c4.267-2.253,7.489-4.851,9.668-7.789c2.938-3.822,4.882-8.23,5.832-13.229C542.214,629.436,542.688,621.791,542.688,611.404z"/>
	<path fill="#B07F48" d="M608.166,535.233h29.562v15.82c9.832-11.327,22.501-17.234,38.005-17.725
		c18.057,0.49,31.245,7.13,39.564,19.922c4.054,4.786,6.835,11.085,8.345,18.896c1.415,7.715,2.122,20.801,2.122,39.257
		c0,17.97-0.709,30.86-2.126,38.672c-1.513,7.814-4.301,14.209-8.363,19.189c-4.065,5.859-9.407,10.547-16.021,14.062
		c-6.521,3.614-14.365,5.516-23.531,5.713c-7.562,0-14.321-1.7-20.274-5.1c-6.427-3.108-12.332-7.384-17.72-12.824v77.689h-29.562
		V535.233z M666.823,658.586c7.002,0,12.536-1.371,16.605-4.115c4.069-2.84,6.956-6.466,8.658-10.876
		c1.891-4.605,3.168-9.7,3.832-15.287c0.188-5.486,0.283-11.121,0.283-16.903c0-6.074-0.096-12.002-0.283-17.783
		c-0.664-5.782-1.941-10.877-3.832-15.287c-1.702-4.605-4.589-8.23-8.658-10.877c-4.069-2.448-9.604-3.673-16.605-3.673
		c-6.624,0-11.876,1.421-15.754,4.262c-4.069,2.843-7.052,6.566-8.942,11.172c-1.799,4.604-2.979,9.604-3.548,14.991
		c-0.567,5.686-0.851,11.417-0.851,17.195c0,5.391,0.283,10.78,0.851,16.169c0.568,5.685,1.749,10.828,3.548,15.433
		c1.891,4.605,4.873,8.329,8.942,11.17C654.947,657.117,660.199,658.586,666.823,658.586z"/>
</g>
</svg>
