<?xml version="1.0" encoding="utf-8"?>
<!-- Generator: Adobe Illustrator 15.0.2, SVG Export Plug-In . SVG Version: 6.00 Build 0)  -->
<!DOCTYPE svg PUBLIC "-//W3C//DTD SVG 1.1//EN" "http://www.w3.org/Graphics/SVG/1.1/DTD/svg11.dtd">
<svg version="1.1" id="Ebene_1" xmlns="http://www.w3.org/2000/svg" xmlns:xlink="http://www.w3.org/1999/xlink" x="0px" y="0px"
	 width="850.39px" height="850.39px" viewBox="0 0 850.39 850.39" enable-background="new 0 0 850.39 850.39" xml:space="preserve">
<rect y="102.894" fill="#50B17A" width="850.39" height="373.171"/>
<rect y="476.064" fill="#4C76B5" width="850.39" height="373.172"/>
<g>
	<g>
		<path fill="#FFFFFF" d="M134.716,717.516h-14.893v-71.387h40.918v12.402h-26.025v18.408h24.219v12.354h-24.219V717.516z"/>
		<path fill="#FFFFFF" d="M220.604,690.123c0,4.559-0.578,8.594-1.734,12.109s-2.816,6.479-4.98,8.887
			c-2.164,2.41-4.801,4.24-7.91,5.494c-3.109,1.252-6.6,1.879-10.473,1.879c-3.613,0-6.934-0.627-9.961-1.879
			c-3.027-1.254-5.641-3.084-7.838-5.494c-2.197-2.408-3.914-5.371-5.15-8.887c-1.238-3.516-1.855-7.551-1.855-12.109
			c0-4.523,0.576-8.545,1.732-12.061s2.816-6.469,4.98-8.861s4.793-4.207,7.887-5.445c3.092-1.236,6.592-1.855,10.498-1.855
			c3.613,0,6.934,0.619,9.961,1.855c3.027,1.238,5.639,3.053,7.836,5.445s3.914,5.346,5.152,8.861
			C219.985,681.578,220.604,685.6,220.604,690.123z M178.71,648.912c0-1.139,0.178-2.123,0.537-2.953
			c0.357-0.83,0.838-1.514,1.439-2.051s1.318-0.936,2.148-1.197c0.83-0.26,1.717-0.391,2.662-0.391c0.943,0,1.83,0.131,2.66,0.391
			c0.83,0.262,1.555,0.66,2.174,1.197c0.617,0.537,1.113,1.221,1.488,2.051s0.562,1.814,0.562,2.953
			c0,1.107-0.188,2.068-0.562,2.881c-0.375,0.814-0.871,1.49-1.488,2.027c-0.619,0.537-1.344,0.936-2.174,1.195
			c-0.83,0.262-1.717,0.391-2.66,0.391c-0.945,0-1.832-0.129-2.662-0.391c-0.83-0.26-1.547-0.658-2.148-1.195
			s-1.082-1.213-1.439-2.027C178.888,650.98,178.71,650.02,178.71,648.912z M185.937,690.123c0,5.438,0.764,9.53,2.295,12.281
			c1.529,2.75,4.02,4.125,7.471,4.125c3.418,0,5.891-1.383,7.422-4.15c1.529-2.766,2.295-6.852,2.295-12.256
			c0-5.436-0.766-9.496-2.295-12.182c-1.531-2.686-4.037-4.029-7.52-4.029c-3.418,0-5.885,1.344-7.398,4.029
			S185.937,684.688,185.937,690.123z M198.388,648.912c0-1.139,0.178-2.123,0.537-2.953c0.357-0.83,0.846-1.514,1.465-2.051
			c0.617-0.537,1.35-0.936,2.197-1.197c0.846-0.26,1.758-0.391,2.734-0.391c0.91,0,1.781,0.131,2.611,0.391
			c0.83,0.262,1.562,0.66,2.197,1.197s1.139,1.221,1.514,2.051s0.562,1.814,0.562,2.953c0,1.107-0.188,2.068-0.562,2.881
			c-0.375,0.814-0.879,1.49-1.514,2.027s-1.367,0.936-2.197,1.195c-0.83,0.262-1.701,0.391-2.611,0.391
			c-1.953,0-3.598-0.537-4.932-1.611C199.054,652.721,198.388,651.094,198.388,648.912z"/>
		<path fill="#FFFFFF" d="M261.913,661.9c0.391,0,0.82,0.009,1.293,0.025c0.473,0.016,0.928,0.049,1.367,0.098
			s0.846,0.098,1.221,0.146s0.66,0.105,0.855,0.17v13.965c-0.262-0.064-0.619-0.129-1.074-0.195
			c-0.457-0.064-0.938-0.121-1.441-0.17s-1-0.082-1.488-0.098c-0.488-0.017-0.896-0.025-1.221-0.025
			c-1.922,0-3.688,0.244-5.299,0.732s-2.994,1.278-4.15,2.369c-1.156,1.09-2.051,2.522-2.686,4.297
			c-0.635,1.773-0.951,3.947-0.951,6.518v27.783h-14.893v-54.59h11.279l2.197,8.203h0.732c0.781-1.398,1.627-2.668,2.539-3.809
			c0.91-1.139,1.928-2.107,3.051-2.904c1.123-0.798,2.393-1.416,3.809-1.855S260.089,661.9,261.913,661.9z"/>
		<path fill="#FFFFFF" d="M292.919,718.492c-2.801,0-5.355-0.602-7.666-1.807c-2.312-1.203-4.297-2.986-5.957-5.346
			c-1.66-2.36-2.955-5.299-3.883-8.814s-1.391-7.584-1.391-12.207c0-4.688,0.463-8.797,1.391-12.328
			c0.928-3.532,2.246-6.494,3.955-8.887s3.752-4.191,6.129-5.396c2.375-1.203,4.996-1.807,7.861-1.807
			c1.758,0,3.369,0.204,4.834,0.611c1.465,0.406,2.783,0.977,3.955,1.709s2.221,1.578,3.148,2.539c0.928,0.96,1.75,2.01,2.467,3.148
			h0.488c-0.195-1.27-0.375-2.555-0.537-3.857c-0.164-1.105-0.303-2.286-0.416-3.539c-0.113-1.254-0.17-2.418-0.17-3.492v-17.48
			h14.893v75.977h-11.377l-2.881-7.08h-0.635c-0.684,1.107-1.465,2.157-2.344,3.15c-0.879,0.992-1.896,1.848-3.053,2.562
			c-1.156,0.717-2.457,1.287-3.906,1.709C296.376,718.281,294.741,718.492,292.919,718.492z M298.339,706.627
			c1.758,0,3.254-0.301,4.492-0.902c1.236-0.603,2.236-1.514,3.002-2.734s1.334-2.742,1.709-4.566
			c0.375-1.822,0.578-3.955,0.611-6.396v-1.611c0-2.637-0.164-4.98-0.488-7.031c-0.326-2.051-0.863-3.768-1.611-5.15
			c-0.75-1.384-1.758-2.434-3.027-3.15c-1.27-0.715-2.865-1.074-4.785-1.074c-3.125,0-5.42,1.408-6.885,4.225
			c-1.465,2.815-2.197,6.908-2.197,12.279s0.74,9.4,2.221,12.086S295.181,706.627,298.339,706.627z"/>
		<path fill="#FFFFFF" d="M361.62,718.492c-3.906,0-7.504-0.569-10.791-1.709c-3.289-1.139-6.121-2.855-8.496-5.15
			c-2.377-2.295-4.225-5.192-5.543-8.691c-1.318-3.5-1.977-7.609-1.977-12.33c0-4.785,0.602-8.967,1.807-12.549
			c1.203-3.58,2.889-6.566,5.053-8.959s4.77-4.191,7.812-5.396c3.043-1.203,6.422-1.807,10.133-1.807
			c3.613,0,6.875,0.546,9.789,1.637c2.914,1.09,5.387,2.693,7.422,4.809c2.035,2.117,3.598,4.713,4.688,7.789s1.637,6.6,1.637,10.57
			v7.227h-33.301c0.064,2.084,0.398,3.964,1,5.641c0.602,1.676,1.449,3.092,2.539,4.248c1.09,1.155,2.408,2.043,3.955,2.66
			c1.547,0.619,3.312,0.928,5.299,0.928c1.66,0,3.23-0.089,4.711-0.268c1.48-0.18,2.922-0.447,4.322-0.807
			c1.398-0.357,2.783-0.805,4.15-1.342s2.766-1.164,4.199-1.881v11.523c-1.303,0.684-2.613,1.262-3.932,1.734
			c-1.318,0.472-2.709,0.871-4.174,1.195c-1.465,0.326-3.045,0.562-4.736,0.709C365.493,718.42,363.638,718.492,361.62,718.492z
			 M359.716,672.496c-2.637,0-4.826,0.928-6.568,2.783s-2.742,4.77-3.002,8.74h18.994c-0.033-1.66-0.244-3.189-0.635-4.59
			c-0.391-1.398-0.977-2.611-1.758-3.637s-1.758-1.832-2.93-2.418S361.278,672.496,359.716,672.496z"/>
		<path fill="#FFFFFF" d="M424.218,661.9c0.391,0,0.82,0.009,1.293,0.025c0.473,0.016,0.929,0.049,1.368,0.098
			s0.846,0.098,1.221,0.146s0.66,0.105,0.855,0.17v13.965c-0.262-0.064-0.619-0.129-1.074-0.195
			c-0.457-0.064-0.938-0.121-1.441-0.17c-0.505-0.049-1.001-0.082-1.489-0.098c-0.488-0.017-0.896-0.025-1.221-0.025
			c-1.922,0-3.688,0.244-5.299,0.732s-2.994,1.278-4.15,2.369c-1.156,1.09-2.051,2.522-2.686,4.297
			c-0.635,1.773-0.951,3.947-0.951,6.518v27.783h-14.893v-54.59h11.279l2.197,8.203h0.732c0.781-1.398,1.627-2.668,2.539-3.809
			c0.91-1.139,1.928-2.107,3.051-2.904c1.123-0.798,2.393-1.416,3.809-1.855S422.394,661.9,424.218,661.9z"/>
		<path fill="#FFFFFF" d="M450.635,717.516l-19.287-54.59h15.576l9.033,31.104c0.553,1.855,1.033,3.785,1.439,5.787
			s0.66,3.801,0.758,5.395h0.293c0.098-1.725,0.35-3.556,0.756-5.492c0.406-1.938,0.887-3.834,1.441-5.689l8.984-31.104h15.625
			l-19.287,54.59H450.635z"/>
		<path fill="#FFFFFF" d="M517.041,718.492c-3.906,0-7.504-0.569-10.791-1.709c-3.289-1.139-6.121-2.855-8.496-5.15
			c-2.377-2.295-4.225-5.192-5.543-8.691c-1.318-3.5-1.977-7.609-1.977-12.33c0-4.785,0.602-8.967,1.807-12.549
			c1.203-3.58,2.889-6.566,5.053-8.959s4.77-4.191,7.812-5.396c3.043-1.203,6.422-1.807,10.133-1.807
			c3.613,0,6.875,0.546,9.789,1.637c2.914,1.09,5.387,2.693,7.422,4.809c2.035,2.117,3.598,4.713,4.688,7.789s1.637,6.6,1.637,10.57
			v7.227h-33.301c0.064,2.084,0.398,3.964,1,5.641c0.602,1.676,1.449,3.092,2.539,4.248c1.09,1.155,2.408,2.043,3.955,2.66
			c1.547,0.619,3.312,0.928,5.299,0.928c1.66,0,3.23-0.089,4.711-0.268c1.48-0.18,2.922-0.447,4.322-0.807
			c1.398-0.357,2.783-0.805,4.15-1.342s2.766-1.164,4.199-1.881v11.523c-1.303,0.684-2.613,1.262-3.932,1.734
			c-1.318,0.472-2.709,0.871-4.174,1.195c-1.465,0.326-3.045,0.562-4.736,0.709C520.914,718.42,519.059,718.492,517.041,718.492z
			 M515.137,672.496c-2.637,0-4.826,0.928-6.568,2.783s-2.742,4.77-3.002,8.74h18.994c-0.033-1.66-0.244-3.189-0.635-4.59
			c-0.391-1.398-0.977-2.611-1.758-3.637s-1.758-1.832-2.93-2.418S516.699,672.496,515.137,672.496z"/>
		<path fill="#FFFFFF" d="M579.639,661.9c0.391,0,0.82,0.009,1.293,0.025c0.473,0.016,0.928,0.049,1.367,0.098
			s0.846,0.098,1.221,0.146s0.66,0.105,0.855,0.17v13.965c-0.262-0.064-0.619-0.129-1.074-0.195
			c-0.457-0.064-0.938-0.121-1.441-0.17s-1-0.082-1.488-0.098c-0.488-0.017-0.896-0.025-1.221-0.025
			c-1.922,0-3.688,0.244-5.299,0.732s-2.994,1.278-4.15,2.369c-1.156,1.09-2.051,2.522-2.686,4.297
			c-0.635,1.773-0.951,3.947-0.951,6.518v27.783h-14.893v-54.59h11.279l2.197,8.203h0.732c0.781-1.398,1.627-2.668,2.539-3.809
			c0.91-1.139,1.928-2.107,3.051-2.904c1.123-0.798,2.393-1.416,3.809-1.855S577.814,661.9,579.639,661.9z"/>
		<path fill="#FFFFFF" d="M618.555,718.492c-3.906,0-7.504-0.569-10.791-1.709c-3.289-1.139-6.121-2.855-8.496-5.15
			c-2.377-2.295-4.225-5.192-5.543-8.691c-1.318-3.5-1.977-7.609-1.977-12.33c0-4.785,0.602-8.967,1.807-12.549
			c1.203-3.58,2.889-6.566,5.053-8.959s4.77-4.191,7.812-5.396c3.043-1.203,6.422-1.807,10.133-1.807
			c3.613,0,6.875,0.546,9.789,1.637c2.914,1.09,5.387,2.693,7.422,4.809c2.035,2.117,3.598,4.713,4.688,7.789s1.637,6.6,1.637,10.57
			v7.227h-33.301c0.064,2.084,0.398,3.964,1,5.641c0.602,1.676,1.449,3.092,2.539,4.248c1.09,1.155,2.408,2.043,3.955,2.66
			c1.547,0.619,3.312,0.928,5.299,0.928c1.66,0,3.23-0.089,4.711-0.268c1.48-0.18,2.922-0.447,4.322-0.807
			c1.398-0.357,2.783-0.805,4.15-1.342s2.766-1.164,4.199-1.881v11.523c-1.303,0.684-2.613,1.262-3.932,1.734
			c-1.318,0.472-2.709,0.871-4.174,1.195c-1.465,0.326-3.045,0.562-4.736,0.709C622.428,718.42,620.572,718.492,618.555,718.492z
			 M616.65,672.496c-2.637,0-4.826,0.928-6.568,2.783s-2.742,4.77-3.002,8.74h18.994c-0.033-1.66-0.244-3.189-0.635-4.59
			c-0.391-1.398-0.977-2.611-1.758-3.637s-1.758-1.832-2.93-2.418S618.213,672.496,616.65,672.496z"/>
		<path fill="#FFFFFF" d="M652.051,648.814c0-1.398,0.211-2.562,0.635-3.49c0.422-0.928,1-1.677,1.732-2.246
			c0.732-0.57,1.596-0.969,2.588-1.197c0.992-0.227,2.043-0.342,3.15-0.342c1.105,0,2.148,0.115,3.125,0.342
			c0.977,0.229,1.83,0.627,2.562,1.197c0.732,0.569,1.318,1.318,1.758,2.246s0.66,2.092,0.66,3.49c0,1.367-0.221,2.523-0.66,3.467
			c-0.439,0.945-1.025,1.701-1.758,2.271c-0.732,0.569-1.586,0.977-2.562,1.221s-2.02,0.365-3.125,0.365
			c-1.107,0-2.158-0.121-3.15-0.365s-1.855-0.651-2.588-1.221c-0.732-0.57-1.311-1.326-1.732-2.271
			C652.262,651.338,652.051,650.182,652.051,648.814z M667.578,717.516h-14.893v-54.59h14.893V717.516z"/>
		<path fill="#FFFFFF" d="M730.566,717.516h-14.893v-31.885c0-3.938-0.596-6.893-1.783-8.861c-1.188-1.97-3.084-2.955-5.688-2.955
			c-1.953,0-3.582,0.391-4.883,1.172c-1.303,0.781-2.336,1.938-3.102,3.467c-0.766,1.531-1.311,3.418-1.635,5.664
			c-0.326,2.246-0.488,4.818-0.488,7.715v25.684h-14.893v-54.59h11.377l2.002,6.982h0.83c0.781-1.398,1.732-2.604,2.855-3.613
			c1.123-1.008,2.352-1.838,3.688-2.49c1.334-0.65,2.75-1.131,4.248-1.439c1.496-0.31,3.027-0.465,4.59-0.465
			c2.668,0,5.094,0.383,7.275,1.148c2.18,0.765,4.053,1.961,5.615,3.588c1.562,1.629,2.766,3.703,3.613,6.227
			c0.846,2.522,1.27,5.541,1.27,9.057V717.516z"/>
	</g>
	<g>
		<path fill="#FFFFFF" d="M279.589,313.136c0,3.191-0.547,6.063-1.637,8.619c-1.09,2.555-2.686,4.736-4.785,6.543
			s-4.672,3.197-7.715,4.174s-6.535,1.465-10.473,1.465c-3.451,0-6.779-0.357-9.986-1.074c-3.207-0.715-6.176-1.789-8.91-3.223
			v-14.062c1.562,0.75,3.141,1.474,4.736,2.174c1.594,0.699,3.213,1.326,4.857,1.879c1.645,0.555,3.287,0.994,4.932,1.318
			c1.645,0.326,3.279,0.488,4.908,0.488c1.66,0,3.084-0.187,4.271-0.561c1.188-0.375,2.148-0.896,2.881-1.562
			c0.732-0.668,1.27-1.465,1.611-2.393s0.514-1.945,0.514-3.053c0-1.334-0.285-2.514-0.855-3.539s-1.367-1.986-2.393-2.881
			c-1.025-0.896-2.262-1.766-3.711-2.613c-1.449-0.846-3.068-1.74-4.857-2.686c-1.498-0.781-3.174-1.725-5.029-2.832
			c-1.855-1.105-3.605-2.481-5.25-4.125c-1.645-1.645-3.02-3.63-4.125-5.957c-1.107-2.328-1.66-5.119-1.66-8.375
			c0-3.189,0.527-6.046,1.586-8.568c1.059-2.523,2.564-4.655,4.518-6.396c1.953-1.742,4.32-3.068,7.104-3.98
			c2.783-0.91,5.9-1.367,9.352-1.367c1.725,0,3.408,0.115,5.053,0.342c1.645,0.229,3.271,0.555,4.883,0.977
			c1.611,0.424,3.23,0.945,4.859,1.562c1.627,0.619,3.303,1.336,5.029,2.148l-4.883,11.768c-1.465-0.684-2.832-1.285-4.102-1.807
			c-1.27-0.52-2.508-0.959-3.711-1.318c-1.205-0.357-2.385-0.626-3.541-0.805c-1.156-0.18-2.318-0.27-3.49-0.27
			c-2.539,0-4.484,0.676-5.836,2.027c-1.352,1.351-2.025,3.148-2.025,5.395c0,1.205,0.203,2.271,0.609,3.199
			s1.059,1.799,1.953,2.611c0.895,0.814,2.051,1.645,3.467,2.49c1.416,0.848,3.133,1.807,5.152,2.881
			c2.441,1.303,4.688,2.629,6.738,3.98c2.051,1.351,3.816,2.848,5.297,4.492c1.48,1.644,2.629,3.508,3.443,5.59
			C279.181,307.896,279.589,310.337,279.589,313.136z"/>
		<path fill="#FFFFFF" d="M313.866,322.072c1.465,0,2.855-0.162,4.174-0.488c1.318-0.324,2.662-0.732,4.029-1.221v11.084
			c-1.4,0.717-3.135,1.311-5.201,1.783c-2.066,0.471-4.32,0.707-6.762,0.707c-2.377,0-4.59-0.276-6.641-0.83
			c-2.051-0.553-3.826-1.521-5.322-2.904c-1.498-1.384-2.678-3.239-3.541-5.566c-0.863-2.328-1.293-5.25-1.293-8.766v-26.318h-7.129
			v-6.299l8.203-4.98l4.297-11.523h9.521v11.621h13.281v11.182h-13.281v26.318c0,2.117,0.52,3.68,1.562,4.688
			C310.806,321.568,312.173,322.072,313.866,322.072z"/>
		<path fill="#FFFFFF" d="M332.47,264.259c0-1.398,0.211-2.562,0.635-3.49c0.422-0.928,1-1.677,1.732-2.246
			c0.732-0.57,1.596-0.969,2.588-1.197c0.992-0.227,2.043-0.342,3.15-0.342c1.105,0,2.148,0.115,3.125,0.342
			c0.977,0.229,1.83,0.627,2.562,1.197c0.732,0.569,1.318,1.318,1.758,2.246s0.66,2.092,0.66,3.49c0,1.367-0.221,2.523-0.66,3.467
			c-0.439,0.945-1.025,1.701-1.758,2.271c-0.732,0.569-1.586,0.977-2.562,1.221s-2.02,0.365-3.125,0.365
			c-1.107,0-2.158-0.121-3.15-0.365s-1.855-0.651-2.588-1.221c-0.732-0.57-1.311-1.326-1.732-2.271
			C332.681,266.783,332.47,265.626,332.47,264.259z M347.997,332.96h-14.893v-54.59h14.893V332.96z"/>
		<path fill="#FFFFFF" d="M391.991,289.552h-11.084v43.408h-14.893v-43.408h-8.203v-7.178l8.203-4.004v-4.004
			c0-3.482,0.422-6.371,1.27-8.666c0.846-2.295,2.051-4.127,3.613-5.494s3.449-2.335,5.664-2.904
			c2.213-0.57,4.703-0.855,7.471-0.855c2.994,0,5.518,0.236,7.568,0.709c2.051,0.472,3.791,1,5.225,1.586l-3.516,10.938
			c-1.01-0.357-2.068-0.684-3.174-0.977c-1.107-0.293-2.41-0.439-3.906-0.439c-1.953,0-3.33,0.627-4.127,1.881
			c-0.797,1.253-1.195,2.855-1.195,4.809v3.418h11.084V289.552z"/>
		<path fill="#FFFFFF" d="M424.511,322.072c1.465,0,2.856-0.162,4.175-0.488c1.318-0.324,2.662-0.732,4.029-1.221v11.084
			c-1.4,0.717-3.135,1.311-5.201,1.783c-2.067,0.471-4.321,0.707-6.763,0.707c-2.377,0-4.59-0.276-6.641-0.83
			c-2.051-0.553-3.826-1.521-5.322-2.904c-1.498-1.384-2.678-3.239-3.541-5.566c-0.863-2.328-1.293-5.25-1.293-8.766v-26.318h-7.129
			v-6.299l8.203-4.98l4.297-11.523h9.521v11.621h13.282v11.182h-13.282v26.318c0,2.117,0.52,3.68,1.562,4.688
			C421.45,321.568,422.817,322.072,424.511,322.072z"/>
		<path fill="#FFFFFF" d="M479.443,332.96l-2.002-6.982h-0.781c-0.814,1.4-1.783,2.597-2.906,3.59
			c-1.123,0.992-2.352,1.814-3.686,2.465c-1.336,0.652-2.752,1.131-4.248,1.441c-1.498,0.309-3.027,0.463-4.59,0.463
			c-2.67,0-5.096-0.383-7.275-1.146c-2.182-0.766-4.053-1.961-5.615-3.59c-1.562-1.627-2.768-3.693-3.613-6.201
			c-0.848-2.506-1.27-5.518-1.27-9.033v-35.596h14.893v31.885c0,3.939,0.594,6.894,1.781,8.863c1.188,1.969,3.084,2.953,5.689,2.953
			c1.953,0,3.58-0.391,4.883-1.172c1.301-0.781,2.334-1.936,3.1-3.467c0.766-1.529,1.311-3.418,1.637-5.664
			c0.324-2.246,0.488-4.816,0.488-7.715v-25.684h14.893v54.59H479.443z"/>
		<path fill="#FFFFFF" d="M553.809,332.96h-14.893v-31.885c0-3.938-0.596-6.893-1.783-8.861c-1.188-1.97-3.084-2.955-5.688-2.955
			c-1.953,0-3.582,0.391-4.883,1.172c-1.303,0.781-2.336,1.938-3.102,3.467c-0.766,1.531-1.311,3.418-1.635,5.664
			c-0.326,2.246-0.488,4.818-0.488,7.715v25.684h-14.893v-54.59h11.377l2.002,6.982h0.83c0.781-1.398,1.732-2.604,2.855-3.613
			c1.123-1.008,2.352-1.838,3.688-2.49c1.334-0.65,2.75-1.131,4.248-1.439c1.496-0.31,3.027-0.465,4.59-0.465
			c2.668,0,5.094,0.383,7.275,1.148c2.18,0.765,4.053,1.961,5.615,3.588c1.562,1.629,2.766,3.703,3.613,6.227
			c0.846,2.522,1.27,5.541,1.27,9.057V332.96z"/>
		<path fill="#FFFFFF" d="M614.307,278.468v8.105l-7.959,2.49c0.65,1.107,1.105,2.255,1.367,3.443
			c0.26,1.188,0.391,2.465,0.391,3.832c0,2.768-0.439,5.299-1.318,7.594s-2.182,4.256-3.906,5.883
			c-1.727,1.629-3.891,2.89-6.494,3.785c-2.605,0.895-5.633,1.342-9.082,1.342c-0.75,0-1.562-0.04-2.441-0.121
			c-0.879-0.082-1.531-0.172-1.953-0.27c-0.652,0.555-1.164,1.132-1.539,1.734c-0.375,0.602-0.561,1.326-0.561,2.172
			c0,0.684,0.211,1.229,0.635,1.637c0.422,0.406,0.977,0.732,1.66,0.977s1.48,0.406,2.393,0.488c0.91,0.081,1.855,0.121,2.832,0.121
			h8.496c2.637,0,4.996,0.302,7.08,0.904c2.082,0.602,3.848,1.521,5.297,2.758c1.449,1.238,2.564,2.809,3.346,4.713
			s1.172,4.174,1.172,6.811c0,3.093-0.619,5.885-1.855,8.375c-1.238,2.49-3.086,4.605-5.543,6.348
			c-2.457,1.74-5.51,3.076-9.154,4.004c-3.646,0.928-7.861,1.391-12.646,1.391c-3.711,0-6.951-0.35-9.717-1.049
			c-2.768-0.701-5.078-1.709-6.934-3.027s-3.248-2.906-4.176-4.762s-1.391-3.955-1.391-6.299c0-1.985,0.342-3.711,1.025-5.176
			s1.594-2.718,2.734-3.76c1.139-1.041,2.432-1.887,3.881-2.539c1.449-0.65,2.938-1.154,4.469-1.514
			c-0.684-0.293-1.359-0.699-2.027-1.221c-0.668-0.52-1.27-1.123-1.807-1.807s-0.977-1.439-1.318-2.27s-0.512-1.701-0.512-2.613
			c0-1.041,0.154-1.984,0.463-2.832c0.309-0.846,0.758-1.635,1.344-2.367s1.318-1.424,2.197-2.076
			c0.879-0.65,1.871-1.318,2.979-2.002c-2.865-1.236-5.137-3.223-6.812-5.957s-2.514-5.957-2.514-9.668
			c0-2.93,0.455-5.549,1.367-7.861c0.91-2.311,2.246-4.271,4.004-5.883s3.938-2.84,6.543-3.688c2.604-0.846,5.598-1.27,8.984-1.27
			c0.65,0,1.383,0.041,2.197,0.123c0.812,0.081,1.619,0.179,2.416,0.293c0.797,0.113,1.539,0.236,2.223,0.365
			c0.684,0.131,1.221,0.244,1.611,0.342H614.307z M575.244,340.675c0,0.814,0.17,1.604,0.512,2.369
			c0.342,0.764,0.904,1.439,1.686,2.025s1.807,1.051,3.076,1.393s2.832,0.512,4.688,0.512c5.078,0,8.902-0.716,11.475-2.148
			c2.57-1.432,3.857-3.353,3.857-5.762c0-2.051-0.799-3.418-2.393-4.102c-1.596-0.684-4.07-1.025-7.422-1.025h-6.885
			c-0.879,0-1.824,0.105-2.832,0.318c-1.01,0.211-1.938,0.577-2.783,1.098c-0.848,0.521-1.555,1.213-2.125,2.076
			C575.527,338.291,575.244,339.374,575.244,340.675z M580.615,296.242c0,2.963,0.553,5.258,1.66,6.885
			c1.105,1.629,2.783,2.441,5.029,2.441c2.344,0,4.035-0.812,5.078-2.441c1.041-1.627,1.562-3.922,1.562-6.885
			c0-2.93-0.514-5.256-1.539-6.982c-1.025-1.725-2.727-2.588-5.102-2.588C582.844,286.671,580.615,289.863,580.615,296.242z"/>
	</g>
	<g>
		<path fill="#FFFFFF" d="M527.221,590.895h-55.225l-14.209-14.648c-7.814,5.373-16.432,9.646-25.854,12.818
			c-9.425,3.172-19.801,4.76-31.128,4.76c-11.719,0-22.339-1.465-31.86-4.395s-17.677-7.053-24.463-12.377
			c-6.789-5.322-12.037-11.719-15.747-19.189c-3.713-7.471-5.566-15.748-5.566-24.83c0-7.518,0.901-14.23,2.71-20.141
			c1.806-5.908,4.369-11.254,7.69-16.041c3.318-4.783,7.347-9.129,12.085-13.036c4.735-3.904,10.034-7.617,15.894-11.133
			c-3.713-4.49-6.862-8.812-9.448-12.965c-2.589-4.148-4.665-8.25-6.226-12.305c-1.563-4.051-2.688-8.104-3.369-12.158
			c-0.685-4.051-1.025-8.276-1.025-12.67c0-7.617,1.487-14.429,4.468-20.435c2.978-6.006,7.127-11.133,12.451-15.381
			c5.321-4.248,11.668-7.494,19.043-9.741c7.372-2.245,15.454-3.369,24.243-3.369c8.397,0,16.137,1.025,23.218,3.076
			c7.078,2.051,13.184,5.054,18.311,9.009s9.154,8.839,12.084,14.648c2.93,5.812,4.395,12.428,4.395,19.849
			c0,6.738-1.098,12.916-3.295,18.53c-2.197,5.617-5.152,10.818-8.863,15.602c-3.713,4.785-8.082,9.18-13.109,13.184
			c-5.031,4.006-10.426,7.715-16.187,11.133l38.085,39.257c3.418-6.445,6.42-13.23,9.01-20.361
			c2.586-7.127,4.809-14.304,6.664-21.532h46.436c-1.465,5.566-3.199,11.425-5.199,17.577c-2.004,6.152-4.322,12.33-6.959,18.531
			c-2.637,6.203-5.664,12.377-9.082,18.529c-3.42,6.152-7.229,12.012-11.426,17.578L527.221,590.895z M370.19,528.785
			c0,4.299,0.78,8.156,2.344,11.572c1.561,3.42,3.735,6.299,6.519,8.643s6.054,4.152,9.814,5.42
			c3.758,1.271,7.837,1.904,12.231,1.904c5.859,0,11.279-0.754,16.26-2.27c4.98-1.514,9.569-3.637,13.769-6.373l-45.263-48.34
			c-4.98,4.102-8.84,8.496-11.572,13.184C371.557,517.213,370.19,522.633,370.19,528.785z M418.237,426.247
			c0-3.026-0.49-5.59-1.465-7.691c-0.978-2.099-2.271-3.832-3.882-5.2c-1.611-1.366-3.419-2.367-5.42-3.003
			c-2.003-0.634-4.028-0.952-6.079-0.952c-2.149,0-4.321,0.293-6.519,0.879s-4.2,1.538-6.006,2.856
			c-1.809,1.318-3.273,3.076-4.395,5.273c-1.124,2.197-1.685,4.907-1.685,8.13c0,5.079,1.121,9.865,3.369,14.355
			c2.245,4.492,5.321,8.986,9.229,13.477c7.519-4.297,13.207-8.592,17.065-12.891C416.308,437.185,418.237,432.105,418.237,426.247z
			"/>
	</g>
</g>
</svg>
