<?xml version="1.0" encoding="utf-8"?>
<!-- Generator: Adobe Illustrator 15.0.2, SVG Export Plug-In . SVG Version: 6.00 Build 0)  -->
<!DOCTYPE svg PUBLIC "-//W3C//DTD SVG 1.1//EN" "http://www.w3.org/Graphics/SVG/1.1/DTD/svg11.dtd">
<svg version="1.1" id="Ebene_1" xmlns="http://www.w3.org/2000/svg" xmlns:xlink="http://www.w3.org/1999/xlink" x="0px" y="0px"
	 width="850.39px" height="850.39px" viewBox="0 0 850.39 850.39" enable-background="new 0 0 850.39 850.39" xml:space="preserve">
<rect x="-0.584" y="102.949" fill="#FFFFFF" width="851.558" height="746.342"/>
<line fill="none" stroke="#000000" stroke-width="4" stroke-miterlimit="10" x1="211.445" y1="849.291" x2="211.445" y2="316.801"/>
<line fill="none" stroke="#000000" stroke-width="4" stroke-miterlimit="10" x1="318.581" y1="316.801" x2="318.581" y2="849.619"/>
<line fill="none" stroke="#000000" stroke-width="4" stroke-miterlimit="10" x1="424.024" y1="849.291" x2="424.024" y2="316.801"/>
<line fill="none" stroke="#000000" stroke-width="4" stroke-miterlimit="10" x1="532.431" y1="316.801" x2="532.431" y2="849.619"/>
<line fill="none" stroke="#000000" stroke-width="4" stroke-miterlimit="10" x1="637.876" y1="849.291" x2="637.876" y2="316.801"/>
<g>
	<rect x="21.479" y="158.994" fill="none" width="807.431" height="168.348"/>
	<path d="M62.289,157.797c8.684,0,15.773,2.791,21.27,8.374v-1.861c0-3.457,1.373-5.185,4.12-5.185c3.012,0,4.52,1.907,4.52,5.717
		v0.797c0,0.179-0.134,1.509-0.398,3.987c-0.266,2.483-0.399,5.451-0.399,8.907c0,0.444,0.087,1.861,0.266,4.253l0.398,5.317
		c0.088,0.445,0.134,1.064,0.134,1.861c0,4.254-1.642,6.381-4.918,6.381c-3.457,0-5.185-1.772-5.185-5.317v-0.665l0.266-3.589
		c0.087-1.24,0.134-2.214,0.134-2.925c0-5.317-1.795-9.482-5.385-12.495c-3.588-3.013-8.53-4.521-14.821-4.521
		c-5.761,0-10.348,1.419-13.758,4.254c-3.413,2.837-5.117,6.647-5.117,11.432c0,5.583,2.525,9.704,7.577,12.363
		c2.834,1.418,7.797,2.704,14.889,3.855c10.544,1.685,17.766,3.988,21.667,6.913c5.849,4.342,8.773,10.502,8.773,18.477
		c0,8.332-2.985,15.111-8.952,20.338c-5.968,5.229-13.685,7.843-23.142,7.843c-10.08,0-18.436-3.19-25.066-9.571
		c0,0.349,0,0.743,0,1.18c0,0.438,0,0.7,0,0.787c0.353,1.4,0.531,2.315,0.531,2.753c0,3.233-1.637,4.851-4.908,4.851
		c-3.552,0-5.328-1.86-5.328-5.583c0-0.442,0.133-0.798,0.399-1.064l0.608-6.912c0.304-3.457,0.456-5.671,0.456-6.647
		c0-1.771-0.246-4.431-0.731-7.976c-0.489-3.543-0.732-6.202-0.732-7.975c0-3.988,1.682-5.982,5.051-5.982
		c3.458,0,5.185,2.002,5.185,6.006v2.401c0,0.713,0,1.736,0,3.07c0,6.674,2.121,11.968,6.361,15.883
		c4.242,3.916,9.985,5.871,17.232,5.871c6.714,0,12.061-1.594,16.037-4.784c3.975-3.191,5.964-7.532,5.964-13.028
		c0-8.417-5.317-13.558-15.952-15.42l-7.577-1.329c-7.534-1.329-13.382-2.878-17.547-4.652c-3.811-1.683-6.846-4.32-9.105-7.909
		c-2.26-3.59-3.39-7.644-3.39-12.163c0-7.798,2.836-14.135,8.508-19.01C45.893,160.235,53.25,157.797,62.289,157.797z"/>
	<path d="M185.765,231.042v-8.507c0.087-3.634,1.683-5.451,4.786-5.451c3.101,0,4.651,2.041,4.651,6.115
		c0,9.661-1.233,16.397-3.697,20.206c-3.343,5.141-8.846,7.71-16.502,7.71c-7.041,0-12.061-2.26-15.051-6.779
		c-2.202-3.278-3.301-8.861-3.301-16.749v-31.904c0-1.86-0.861-2.792-2.583-2.792h-4.349c-1.451,0-2.652-0.466-3.604-1.396
		c-0.952-0.929-1.427-2.061-1.427-3.39c0-1.239,0.465-2.347,1.396-3.323c0.931-0.974,1.972-1.462,3.124-1.462h5.185
		c1.506,0,2.259-0.841,2.259-2.525v-13.692c0-3.367,1.729-5.051,5.185-5.051c3.19,0,4.785,1.684,4.785,5.051v14.224
		c0,1.33,0.797,1.994,2.393,1.994h14.49c3.367,0,5.052,1.552,5.052,4.653c0,3.279-1.817,4.918-5.45,4.918h-14.624
		c-1.24,0-1.86,0.931-1.86,2.792v32.701c0,9.306,3.099,13.958,9.301,13.958C182.212,242.342,185.494,238.576,185.765,231.042z"/>
	<path d="M264.975,210.837v17.281c0,4.433,0.043,7.045,0.132,7.843c0.442,3.988,1.639,5.982,3.589,5.982
		c0.442,0,1.548-0.22,3.323-0.665c0.442-0.176,1.106-0.266,1.994-0.266c3.366,0,5.051,1.462,5.051,4.387
		c0,1.242-0.557,2.305-1.668,3.19c-1.111,0.884-2.512,1.33-4.202,1.33c-1.423,0-3.579-0.2-6.467-0.597
		c-2.893-0.399-5.049-0.599-6.471-0.599c-2.312,0-4.89,0.18-7.736,0.532c-3.468,0.442-5.781,0.666-6.936,0.666
		c-3.557,0-5.335-1.507-5.335-4.52c0-2.924,1.52-4.387,4.561-4.387c0.714,0,1.764,0.133,3.15,0.399
		c1.386,0.265,2.437,0.399,3.153,0.399c2.145,0,3.442-2.836,3.89-8.508c0-0.353,0-4.208,0-11.565v-10.901c0-7.355,0-11.21,0-11.564
		c-0.448-5.583-1.789-8.375-4.022-8.375c-0.716,0-1.724,0.155-3.02,0.464c-1.296,0.312-2.258,0.466-2.883,0.466
		c-3.219,0-4.83-1.417-4.83-4.254c0-3.011,1.949-4.519,5.849-4.519c1.682,0,2.879,0.046,3.588,0.133
		c2.835,0.355,4.653,0.532,5.45,0.532c0.709,0,1.796-0.111,3.258-0.332c1.461-0.22,2.546-0.333,3.257-0.333
		c2.57,0,3.855,1.728,3.855,5.184c0,0.356-0.035,0.888-0.107,1.596c-0.07,0.71-0.106,1.242-0.106,1.595
		c-0.073,0.71-0.143,3.456-0.214,8.242C265.01,203.306,264.975,207.027,264.975,210.837z M258.062,176.008
		c-2.04,0-3.789-0.731-5.25-2.193c-1.462-1.462-2.194-3.211-2.194-5.251c0-2.038,0.731-3.766,2.194-5.184
		c1.462-1.417,3.211-2.127,5.25-2.127c2.038,0,3.79,0.71,5.251,2.127c1.462,1.418,2.193,3.146,2.193,5.184
		c0,2.041-0.731,3.79-2.193,5.251C261.851,175.277,260.099,176.008,258.062,176.008z"/>
	<path d="M365.453,170.824c0-1.24,0.442-2.347,1.33-3.324c-1.508-1.416-3.723-2.126-6.647-2.126c-3.812,0-6.803,1.218-8.972,3.654
		c-2.172,2.439-3.257,5.829-3.257,10.17v2.394c0,1.153,0.575,1.728,1.729,1.728h10.369c2.924,0,4.387,1.595,4.387,4.786
		c0,3.191-1.463,4.786-4.387,4.786h-9.837c-1.508,0-2.26,0.798-2.26,2.393v37.221c0,3.28,0.044,5.184,0.133,5.715
		c0.442,2.393,1.549,3.59,3.323,3.59c0.443,0,1.549-0.22,3.324-0.665c1.239-0.176,2.127-0.266,2.658-0.266
		c3.012,0,4.52,1.462,4.52,4.388c0,3.102-1.817,4.652-5.45,4.652c-1.508,0-3.789-0.179-6.847-0.531
		c-3.058-0.354-5.339-0.533-6.846-0.533c-2.658,0-5.052,0.133-7.178,0.399c-3.457,0.443-5.672,0.665-6.647,0.665
		c-3.811,0-5.716-1.55-5.716-4.652c0-1.151,0.466-2.171,1.395-3.058c0.931-0.885,2.016-1.33,3.258-1.33
		c0.885,0,1.882,0.156,2.99,0.466c1.107,0.312,2.104,0.466,2.991,0.466c1.682,0,2.746-1.064,3.19-3.191
		c0.442-2.126,0.708-7.266,0.797-15.421v-27.916c0-1.594-0.791-2.393-2.37-2.393h-6.582c-3.072,0-4.607-1.638-4.607-4.918
		c0-3.1,1.596-4.652,4.786-4.652h7.577c1.15,0,1.728-0.575,1.728-1.728V179.2c0-7,1.862-12.363,5.583-16.085
		c3.723-3.722,8.994-5.583,15.818-5.583c5.584,0,10.058,1.129,13.426,3.39c3.367,2.261,5.052,5.296,5.052,9.106
		c0,1.951-0.621,3.522-1.861,4.718c-1.242,1.198-2.792,1.796-4.652,1.796c-1.773,0-3.258-0.552-4.454-1.662
		C366.051,173.771,365.453,172.419,365.453,170.824z"/>
	<path d="M453.966,231.042v-8.507c0.088-3.634,1.682-5.451,4.786-5.451c3.1,0,4.652,2.041,4.652,6.115
		c0,9.661-1.234,16.397-3.698,20.206c-3.345,5.141-8.846,7.71-16.503,7.71c-7.041,0-12.06-2.26-15.05-6.779
		c-2.202-3.278-3.301-8.861-3.301-16.749v-31.904c0-1.86-0.861-2.792-2.583-2.792h-4.349c-1.45,0-2.651-0.466-3.604-1.396
		c-0.951-0.929-1.427-2.061-1.427-3.39c0-1.239,0.465-2.347,1.396-3.323c0.931-0.974,1.972-1.462,3.123-1.462h5.185
		c1.506,0,2.259-0.841,2.259-2.525v-13.692c0-3.367,1.729-5.051,5.184-5.051c3.19,0,4.786,1.684,4.786,5.051v14.224
		c0,1.33,0.798,1.994,2.394,1.994h14.489c3.365,0,5.052,1.552,5.052,4.653c0,3.279-1.817,4.918-5.451,4.918h-14.621
		c-1.242,0-1.862,0.931-1.862,2.792v32.701c0,9.306,3.098,13.958,9.302,13.958C450.414,242.342,453.696,238.576,453.966,231.042z"/>
	<path d="M566.01,246.063v-4.12c-4.697,6.47-11.654,9.703-20.87,9.703c-10.458,0-17.728-3.233-21.802-9.703
		c-1.773-2.836-2.747-6.158-2.924-9.97c-0.09-1.861-0.133-5.76-0.133-11.698v-11.034c0-12.14-1.299-18.21-3.892-18.21
		c-0.54,0-1.389,0.066-2.553,0.2c-1.162,0.132-2.058,0.199-2.684,0.199c-3.131,0-4.697-1.439-4.697-4.32
		c0-2.791,1.904-4.188,5.717-4.188c0.884,0,2.192,0.113,3.921,0.333c1.729,0.222,3.035,0.333,3.922,0.333
		c0.798,0,2.171-0.133,4.121-0.399c1.327-0.176,2.08-0.266,2.259-0.266c2.746,0,4.12,1.685,4.12,5.051v2.792v8.641l-0.398,9.836
		v8.642c0,7.709,0.62,13.25,1.862,16.616c2.037,5.583,6.911,8.375,14.623,8.375c3.808,0,7.178-0.864,10.102-2.592
		c2.924-1.729,4.962-4.009,6.116-6.848c1.416-3.456,2.126-10.013,2.126-19.673v-7.311c0-5.317,0-8.196,0-8.641
		c-0.444-4.253-1.594-6.38-3.456-6.38c-0.976,0-1.773,0-2.394,0h-1.595c-3.104,0-4.652-1.332-4.652-3.996
		c0-3.007,1.727-4.512,5.185-4.512c0.796,0,2.015,0.089,3.655,0.266c1.64,0.178,2.857,0.267,3.654,0.267
		c0.709,0,1.773-0.088,3.191-0.267c1.416-0.177,2.479-0.266,3.189-0.266c2.658,0,3.988,1.423,3.988,4.265
		c0,1.245-0.088,2.22-0.266,2.93c-0.444,3.375-0.665,8.35-0.665,14.921v20.518c0,5.419,0.045,8.439,0.133,9.061
		c0.444,4.708,1.684,7.061,3.724,7.061c0.618,0,1.506-0.11,2.658-0.331c1.15-0.22,2.038-0.333,2.658-0.333
		c3.012,0,4.52,1.462,4.52,4.387c0,3.014-1.862,4.52-5.582,4.52c-0.798,0-1.952-0.09-3.458-0.266
		c-2.216-0.266-3.589-0.399-4.12-0.399c-0.267,0-1.195,0.089-2.791,0.266c-1.064,0.266-1.995,0.399-2.793,0.399
		C567.248,249.918,566.01,248.635,566.01,246.063z"/>
	<path d="M655.719,186.978v3.786c5.318-6.734,12.406-10.103,21.27-10.103c4.784,0,9.307,1.219,13.559,3.655
		c4.253,2.439,7.133,5.474,8.641,9.106c1.239,3.014,1.861,6.958,1.861,11.831v25.257c0,3.812,0.045,6.071,0.133,6.78
		c0.444,3.014,1.64,4.52,3.59,4.52c0.798,0,1.838-0.109,3.123-0.333c1.285-0.22,2.194-0.332,2.727-0.332
		c1.149,0,2.147,0.399,2.99,1.197c0.841,0.797,1.264,1.773,1.264,2.925c0,1.329-0.532,2.438-1.597,3.322
		c-1.063,0.884-2.349,1.33-3.854,1.33c-1.242,0-3.28-0.179-6.116-0.531c-2.836-0.354-5.495-0.533-7.974-0.533
		c-2.306,0-4.211,0.09-5.717,0.266c-4.432,0.532-6.778,0.798-7.045,0.798c-3.548,0-5.317-1.55-5.317-4.652
		c0-2.747,1.535-4.122,4.609-4.122c0.722,0,1.533,0.089,2.438,0.266c1.717,0.355,2.801,0.532,3.254,0.532
		c2.167,0,3.341-2.437,3.524-7.311v-6.78v-8.109V209.64c0-4.696-0.225-7.93-0.665-9.705c-0.794-3.367-2.517-5.981-5.163-7.842
		c-2.912-2.037-6.224-3.058-9.93-3.058c-7.064,0-12.14,2.526-15.228,7.578c-2.12,3.455-3.179,9.351-3.179,17.679v17.68
		c0,3.901,0.267,6.56,0.798,7.977c0.53,1.418,1.506,2.126,2.924,2.126c0.708,0,1.685-0.154,2.925-0.466
		c1.241-0.31,2.261-0.466,3.059-0.466c2.746,0,4.121,1.485,4.121,4.454c0,2.882-1.774,4.321-5.318,4.321
		c-0.71,0-3.014-0.267-6.912-0.798c-1.949-0.266-4.12-0.399-6.513-0.399c-1.863,0-4.344,0.18-7.445,0.533
		c-3.9,0.441-6.116,0.665-6.647,0.665c-3.723,0-5.582-1.507-5.582-4.52c0-2.835,1.443-4.254,4.332-4.254
		c0.451,0,1.287,0.133,2.505,0.399c1.217,0.267,2.414,0.398,3.587,0.398c2.709,0,4.107-2.569,4.197-7.71v-14.755v-16.084v-4.653
		c-0.18-3.011-0.563-5.072-1.149-6.182c-0.587-1.106-1.604-1.66-3.048-1.66c-0.632,0-1.557,0.112-2.775,0.332
		c-1.218,0.222-2.144,0.332-2.773,0.332c-3.25,0-4.873-1.416-4.873-4.254c0-2.924,1.992-4.386,5.98-4.386
		c0.53,0,0.972,0.046,1.33,0.133l4.919,0.532c1.416,0,2.658-0.11,3.722-0.333c2.302-0.22,3.499-0.333,3.587-0.333
		C654.435,182.921,655.719,184.272,655.719,186.978z"/>
	<path d="M793.02,180.661c2.304,0,4.92,0.354,7.845,1.063c0.441-8.685,5.491-13.027,15.153-13.027c4.076,0,7.488,1.063,10.234,3.19
		c2.746,2.127,4.121,4.832,4.121,8.109c0,2.127-0.687,3.944-2.06,5.45c-1.375,1.509-2.99,2.26-4.853,2.26
		c-1.418,0-2.657-0.486-3.722-1.462c-1.063-0.975-1.596-2.127-1.596-3.457c0-1.416,0.976-2.878,2.926-4.386
		c-1.418-1.771-3.237-2.659-5.451-2.659c-4.697,0-7.09,2.925-7.18,8.773c6.736,4.52,10.104,10.592,10.104,18.212
		c0,6.115-2.312,11.212-6.933,15.287c-4.62,4.077-10.397,6.115-17.327,6.115c-4.89,0-9.955-1.15-15.196-3.456
		c-1.424-0.619-2.623-0.93-3.601-0.93c-1.244,0-2.354,0.555-3.331,1.662c-0.979,1.109-1.467,2.415-1.467,3.92
		c0,4.609,4.663,6.913,13.992,6.913h0.798c0.71,0,1.51,0,2.399,0c0.887,0,1.422,0,1.601,0c8.435,0,15.278,0.795,20.52,2.385
		c4.886,1.503,8.749,3.844,11.595,7.024c2.84,3.18,4.264,6.757,4.264,10.732c0,6.447-2.99,11.548-8.974,15.304
		c-5.982,3.753-14.07,5.631-24.26,5.631c-10.191,0-18.191-1.774-23.994-5.316c-5.805-3.546-8.707-8.42-8.707-14.624
		c0-7.179,4.031-12.272,12.097-15.288c-7.268-2.834-10.901-7.088-10.901-12.762c0-6.201,3.634-10.455,10.901-12.76
		c-2.306-3.101-3.458-6.733-3.458-10.9c0-6.026,2.327-11.033,6.979-15.021C780.193,182.655,786.02,180.661,793.02,180.661z
		 M793.551,241.012c-7.09,0-12.674,1.063-16.747,3.19c-4.078,2.126-6.116,5.008-6.116,8.641c0,3.632,1.993,6.491,5.983,8.574
		c3.985,2.081,9.347,3.125,16.084,3.125c7.088,0,12.693-1.063,16.814-3.19c4.123-2.127,6.183-4.964,6.183-8.508
		c0-3.723-1.95-6.624-5.851-8.708C806.002,242.054,800.553,241.012,793.551,241.012z M793.418,189.434
		c-3.897,0-7.223,1.153-9.969,3.457c-2.748,2.306-4.254,5.185-4.52,8.641v0.797c0,3.901,1.33,7.045,3.989,9.438
		c2.658,2.394,6.114,3.589,10.368,3.589c4.43,0,8.042-1.196,10.833-3.589c2.793-2.392,4.189-5.45,4.189-9.172
		c0-3.809-1.42-6.956-4.256-9.438C801.218,190.677,797.674,189.434,793.418,189.434z"/>
</g>
<g id="Ebene_6">
	<g>
		<g>
			<defs>
				<rect id="SVGID_1_" x="-0.584" y="423.727" width="745.594" height="425.894"/>
			</defs>
			<clipPath id="SVGID_2_">
				<use xlink:href="#SVGID_1_"  overflow="visible"/>
			</clipPath>
			<polygon clip-path="url(#SVGID_2_)" fill="#BD0C27" points="-9.676,839.863 203.858,595.98 409.067,830.354 417.5,839.987 
				425.932,849.619 768.513,458.352 751.646,439.088 425.526,811.554 220.32,577.181 212.089,567.781 203.858,558.38 
				-26.137,821.063 			"/>
		</g>
	</g>
</g>
</svg>
