<?xml version="1.0" encoding="utf-8"?>
<!-- Generator: Adobe Illustrator 15.0.2, SVG Export Plug-In . SVG Version: 6.00 Build 0)  -->
<!DOCTYPE svg PUBLIC "-//W3C//DTD SVG 1.1//EN" "http://www.w3.org/Graphics/SVG/1.1/DTD/svg11.dtd">
<svg version="1.1" xmlns="http://www.w3.org/2000/svg" xmlns:xlink="http://www.w3.org/1999/xlink" x="0px" y="0px"
	 width="1417.32px" height="1417.32px" viewBox="0 0 1417.32 1417.32" enable-background="new 0 0 1417.32 1417.32"
	 xml:space="preserve">
<g id="Ebene_1">
	<path fill="#905E36" d="M180.767,177.166H143.98H0v165.096c0,0.015,0,0.03,0,0.044v909.875c0,0.015,0,0.029,0,0.044v165.097h143.98
		h36.787h990.549V177.166H180.767z"/>
	<g>
		<g>
			<path fill-rule="evenodd" clip-rule="evenodd" fill="#673B15" d="M635.34,406.746c4.06,5.461,9.19,5.807,13.343,11.29
				c3.034,4.008,3.252,9.789,7.184,13.342c6.426,5.812,17.928,5.115,23.605,11.29c5.383,5.854,3.895,15.788,7.185,23.606
				c4.739,11.267,16.456,17.136,20.527,27.711c23.856-16.856,33.458-47.964,36.947-85.185c-18.609-27.143,12.03-41.483,9.237-67.737
				c2.416-5.11,7.332-7.721,10.264-12.316c-5.605-17.55-0.579-27.11,11.289-36.947c15.05-12.474,40.875-13.506,52.341-27.71
				c24.694-2.458,38.99,5.485,49.266,17.447c39.942,8.28,39.414,55.474,58.499,92.37c1.974,3.813,5.156,6.087,6.158,9.236
				c7.447,23.408-6.832,42.979-13.341,57.475c-2.703,1.743-8.793,0.102-11.29,2.051c3.771,5.081,6.046,12.287,10.266,19.502
				c7.61,13.017,22.408,23.616,28.733,35.92c23.297,45.311,19.49,121.715,22.579,183.711c0.499,9.993,2.023,22.28,4.107,33.87
				c2.022,11.249,7.204,24.427,5.128,32.843c-1.564,6.354-13.104,16.201-17.446,21.55c-6.83,8.422-12.65,14.33-16.42,21.555
				c2.454,0.623,7.447-1.288,8.21,1.027c19.4,83.052,25.242,186.838,29.764,286.342c0.831,18.273,0.786,38.548,0,56.446
				c-0.784,17.824-4.376,36.026,5.132,46.187c-4.66,8.432-9.038,15.596-6.158,29.765c1.107,5.457,4.881,10.869,6.158,16.419
				c1.75,7.614-1.563,16.954,5.132,17.448c-2.519,8.977-11.883,14.216-19.499,22.581c-9.93,10.904-14.7,24.132-34.896,24.629
				c-7.348-12.98-40.451-0.983-60.555-7.183c-1.746,3.042-1.126,8.451-2.051,12.317c-15.957,1.081-28.968,0.848-46.186,0
				c-16.328-0.81-29.645-6.138-45.158-8.214c-22.304-2.981-43.62,4.78-67.735,0c-2.35,1.759-0.378,7.836-1.028,11.29
				c-5.279-4.297-6.926-12.23-12.314-16.42c-24.085,9.783-64.502,3.233-96.475,5.13c-0.008-4.247,2.6-9.737,0-13.341
				c-10.845-5.925-22.505-10.496-34.894-6.16c-7.437,2.604-10.95,11.76-16.422,14.371c-18.389,8.783-53.315-0.645-67.736-9.238
				c-7.403-4.408-12.52-11.905-25.659-11.286c-3.072,26.355,3.86,56.573-32.841,49.262c-4.311,1.504-3,8.632-7.185,10.263
				c-22.086-1.864-39.956-7.939-57.475-14.369c-42.938,9.745-83.798,21.57-122.131,35.922c-7.26-18.428-7.577-37.117-12.316-56.449
				c-5.521-22.525-16.705-37.559-17.448-64.659c-1.932-2.854-7.598-1.979-10.264-4.104c-2.278-57.07,3.774-117.081,1.026-177.551
				c-3.189-70.245,0.2-141.894-6.157-207.318c-0.484-4.979-1.506-12.286-3.08-17.449c-1.852-6.076-6.775-10.524-9.237-16.42
				c-10.208-24.458-15.879-62.052-13.341-93.395c2.623-32.398,4.317-62.79,8.21-92.369c1.395-10.607,6.647-18.102,10.265-27.71
				c6.828-18.15,8.331-33.086,28.736-39c0.134-5.345-5.979-6.138-5.131-11.29c2.682-16.311,40.436-21.336,52.342-31.816
				c-2.913-10.429-10.44-16.244-13.344-26.683c-0.454-2.967-7.753,0.91-8.209-2.055c2.357-22.73-4.337-38.165-2.052-58.5
				c3.781-33.649,40.585-64.126,72.868-67.736c42.935-4.802,78.353,34.37,81.08,71.842c2.195,30.157-3.101,58.869-19.5,80.052
				c2.77,2.021,8.969,0.613,13.342,1.027c9.583,11.627,21.27,21.151,24.632,39c4.197,4.356,10.248,6.857,15.393,10.263
				c2.809-20.306,0.599-43.715,7.186-61.579c1.366-3.703,5.127-6.838,7.185-11.29c3.223-6.97,3.739-15.481,7.184-19.499
				c5.109-5.96,14.783-7.244,20.527-12.316c-5.34-10.169,2.096-21.544,2.051-32.842c11.949-0.569,27.1,0.832,35.92,0
				c3.433-2.527-0.699-13.091-1.024-18.474c-14.296-9.244-31.572-39.969-14.369-58.5c-0.018-21.295-1.068-41.972,5.131-55.423
				c5.887-12.77,25.641-34.149,41.053-40.025c15.959-6.086,50.076-6.845,65.684,0c17.091,7.494,34.704,28.792,41.055,47.21
				c6.18,17.937,1.151,37.622,3.076,57.474c1.06,10.907,4.51,26.641-3.076,39C651.522,394.968,638.984,394.502,635.34,406.746z
				 M623.024,386.22c9.792-4.505,14.673-5.224,18.475-12.315c4.897-9.139,0.594-15.356,0-24.632
				c-1.332-20.772,4.015-39.718-3.08-56.447c-6.05-14.268-19.191-29.159-33.868-33.87c-11.578-3.716-34.491-4.009-46.185,0
				c-9.615,3.298-30.202,24.477-33.869,33.87c-5.324,13.638,0.104,34.775-3.078,50.289c-1.274,6.199-6.453,12.619-6.159,17.449
				c0.892,14.59,15.394,14.465,20.525,26.684c5.228,12.443,1.943,22.831,2.053,40.026c-9.842,6.013-23.49,7.266-39,5.131
				c-2.935,8.729,1.889,15.875,3.079,23.606c-9.514,5.536-18.025,12.08-27.71,17.447c-11.582,23.312-16.943,52.846-17.447,87.237
				c16.237,67.969,30.679,149.756,17.447,229.896c-4.124,24.985-11.637,49.075-13.342,72.868
				c-4.687,65.413,4.225,131.142,9.237,193.976c5.098,63.911,10.342,125.464,2.054,188.841c20.592-2.03,28.636,11.09,41.052,16.424
				c10.659,4.575,27.027,9.735,40.026,6.158c7.034-1.939,13.01-12.593,20.526-15.396c14.155-5.283,33.702-3.463,47.21,3.08
				c5.282,2.555,8.768,13.044,16.421,15.393c9.858,3.029,25.048,0,35.922,0c12.223,0,22.862-0.31,31.816-4.104
				c-3.216-97.26-7.411-206.977-1.026-307.898c2.132-33.714,7.218-67.391,7.184-98.526c-0.032-28.831-8.895-60.937-15.394-86.212
				c-2.435-9.463-6.151-22.412-5.133-28.735c1.261-7.836,10.236-17.899,14.37-24.632c5.377-8.761,11.89-16.256,14.368-24.634
				c3.815-12.896,1.026-30.484,1.026-45.157c0-34.805,3.304-76.307-5.132-105.71c-4.03-14.045-13.083-27.764-20.524-39
				c-10.821-16.337-27.87-27.361-28.738-51.315c-17.121-4.432-28.485-14.621-34.896-29.764c-8.41,0.838-16.771,7.161-23.605,6.157
				C611.982,416.232,619.07,402.792,623.024,386.22z M906.289,352.352c-4.751-12.133-7.385-31.596-15.395-42.08
				c-4.854-6.353-13.43-7.526-22.578-12.316c-10.691-5.594-13.065-13.045-22.579-15.395c-16.65-4.11-20.082,7.997-30.79,12.317
				c-14.846,5.988-32.258,6.402-34.895,20.526c-1.58,8.465,4.518,15.935,4.105,25.658c-2.039,3.092-8.225,2.039-10.264,5.131
				c5.294,5.337-3.31,10.258-4.105,12.316c-0.856,2.21,0.893,5.267,0,7.183c-3.804,8.16-13.145,16.184-13.344,23.605
				c-0.181,6.769,6.095,10.254,7.186,18.475c-5.952,30.271-8.969,59.23-23.605,80.052c-6.505,9.256-16.775,13.601-21.555,23.607
				c23.775,31.783,21.816,109.694,21.555,165.238c-0.172,36.486-19.692,53.232-30.791,74.92
				c7.968,37.65,21.393,76.026,19.502,119.052c-1.857,42.232-8.212,85.74-8.212,130.344c0,91.125-4.708,184.01,4.104,269.924
				c24.694,4.975,45.744-2.219,68.764,0c11.081,1.069,22.425,5.828,34.896,7.183c13.013,1.415,25.697,2.696,40.027,2.051
				c-0.144-5.271,0.148-10.11,2.052-13.34c13.626-3.738,32.019,3.831,49.263,3.077c14.579-0.633,27.231-3.272,35.921,2.055
				c4.778-2.063,3.495-10.191,5.131-15.393c7.141-4.942,17.4-5.341,19.501-13.345c2.021-7.694-5.378-18.547-7.184-26.685
				c-2.466-11.119,0.765-23.558,1.027-32.842c0.128-4.598-1.862-8.604-2.056-13.342c-1.483-36.859,2.73-75.969,0.003-115.975
				c-5.769-84.607-9.412-173.877-23.606-244.265c-24.431-9.038-10.476-28.854,1.025-44.132c4.478-5.944,18.284-17.905,19.5-25.658
				c0.902-5.746-3.6-18.018-5.131-27.711c-11.111-70.365,2.364-155.549-24.631-206.291c-9.861-18.535-28.673-27.271-33.87-47.21
				c-4.718-2.807-11.48-3.572-16.42-6.157c3.189-6.392,3.541-15.618,7.184-21.554c7.139-3.124,15.088-5.438,20.527-10.263
				c-0.247-15.07-11.469-27.337-15.395-42.079c6.118,3.18,14.909,17.887,18.474,16.421
				C921.149,381.055,912.209,367.469,906.289,352.352z M385.944,411.878c-4.453-17.138-24.938-36.777-40.026-42.08
				c-22.44-7.885-46.222,7.56-58.5,19.501c-16.832,16.365-20.462,36.334-16.422,68.762c0.92,3.188,6.095,2.119,6.158,6.159
				c3.049,19.531,17.438,27.722,18.475,49.265c-13.927,10.36-30.635,17.943-48.237,24.631c2.301,1.484,3.534,12.872,4.106,19.5
				c-10.865,5.719-23.826,7.639-29.764,16.42c-2.33,3.445-3.768,12.011-6.158,18.474c-2.452,6.627-6.003,13.804-7.184,18.473
				c-7.045,27.856-6.718,65.358-9.236,96.475c-0.516,6.356-3.229,12.689-3.08,18.473c0.236,9.224,3.819,22.543,6.159,33.87
				c2.339,11.331,4.68,24.162,8.209,32.843c2.473,6.077,7.161,11.163,9.237,17.446c8.742,26.459,6.135,60.981,7.185,94.419
				c3.113,99.271,5.062,205.567,2.053,300.716c1.763,3.708,10.289,0.655,10.263,6.157c-1.057,27.658,8.378,42.842,14.369,62.604
				c4.651,15.343,6.243,29.996,10.263,47.21c23.691-9.596,54.264-16.948,81.078-23.603c9.707-2.413,20.553-7.48,28.737-7.187
				c16.376,0.592,29.449,12.821,46.185,13.342c4.146-2.013,3.436-8.877,7.185-11.289c6,1.701,16.874,3.416,22.579,2.055
				c2.663-44.691,10.377-90.158,10.263-135.476c-0.063-24.684-3.241-50.122-5.133-74.921
				c-5.595-73.374-17.193-151.197-11.289-227.845c2.423-31.445,14.682-64.029,16.422-95.445
				c3.818-68.961-4.546-126.521-17.449-185.765c-12.917-6.24-24.345-13.972-35.92-21.555c1.063-17.141-9.67-22.485-15.395-32.841
				c-16.386,1.335-21.89-8.216-30.789-14.369C379.83,485.493,395.062,446.976,385.944,411.878z"/>
			<path fill-rule="evenodd" clip-rule="evenodd" fill="#673B15" d="M580.945,493.985c5.131,0,10.263,0,15.395,0
				c0,4.104,0,8.208,0,12.314c1.756,2.35,7.834,0.378,11.289,1.027c0,5.132,0,10.263,0,15.396c-3.763,0-7.527,0-11.289,0
				c0,8.209,0,16.42,0,24.63c-5.132,0-10.263,0-15.395,0c0-7.868,0-15.737,0-23.604c-1.757-2.35-7.835-0.377-11.291-1.026
				c0-5.133,0-10.264,0-15.396c3.765,0,7.527,0,11.291,0C580.945,502.88,580.945,498.431,580.945,493.985z"/>
			<path fill-rule="evenodd" clip-rule="evenodd" fill="#673B15" d="M840.606,529.905c5.131,0,10.261,0,15.392,0
				c0,4.448,0,8.896,0,13.343c1.759,2.348,7.836,0.375,11.29,1.026c0,4.79,0,9.579,0,14.369c-3.763,0-7.524,0-11.29,0
				c0,8.553,0,17.105,0,25.657c-5.131,0-10.261,0-15.392,0c0-8.209,0-16.419,0-24.631c-1.758-2.349-7.836-0.376-11.29-1.026
				c0-4.79,0-9.579,0-14.369c3.762,0,7.525,0,11.29,0C840.606,539.484,840.606,534.695,840.606,529.905z"/>
			<path fill-rule="evenodd" clip-rule="evenodd" fill="#673B15" d="M317.181,581.221c5.13,0,10.263,0,15.395,0
				c0,4.106,0,8.212,0,12.316c1.755,2.351,7.834,0.375,11.288,1.027c0,4.79,0,9.58,0,14.369c-3.762,0-7.525,0-11.288,0
				c0,8.552,0,17.104,0,25.657c-5.132,0-10.264,0-15.395,0c0-8.21,0-16.421,0-24.632c-1.757-2.348-7.833-0.376-11.291-1.025
				c0-4.789,0-9.579,0-14.369c3.763,0,7.527,0,11.291,0C317.181,590.116,317.181,585.668,317.181,581.221z"/>
		</g>
	</g>
	<rect x="1171.315" y="177.166" fill="#C99D64" width="246.005" height="1240.156"/>
	<g>
		<linearGradient id="SVGID_1_" gradientUnits="userSpaceOnUse" x1="1292.9082" y1="483.6313" x2="1292.9082" y2="525.6091">
			<stop  offset="0" style="stop-color:#1A171B"/>
			<stop  offset="0.0896" style="stop-color:#1A171B;stop-opacity:0.9104"/>
			<stop  offset="1" style="stop-color:#1A171B;stop-opacity:0"/>
		</linearGradient>
		<rect x="1169.432" y="482.7" fill="url(#SVGID_1_)" width="246.952" height="49.215"/>
		<linearGradient id="SVGID_2_" gradientUnits="userSpaceOnUse" x1="1293.8438" y1="792.8623" x2="1293.8438" y2="834.8396">
			<stop  offset="0" style="stop-color:#1A171B"/>
			<stop  offset="0.0896" style="stop-color:#1A171B;stop-opacity:0.9104"/>
			<stop  offset="1" style="stop-color:#1A171B;stop-opacity:0"/>
		</linearGradient>
		<rect x="1170.368" y="791.931" fill="url(#SVGID_2_)" width="246.952" height="49.215"/>
		<linearGradient id="SVGID_3_" gradientUnits="userSpaceOnUse" x1="1293.8457" y1="1102.1719" x2="1293.8457" y2="1144.1492">
			<stop  offset="0" style="stop-color:#1A171B"/>
			<stop  offset="0.0896" style="stop-color:#1A171B;stop-opacity:0.9104"/>
			<stop  offset="1" style="stop-color:#1A171B;stop-opacity:0"/>
		</linearGradient>
		<rect x="1170.37" y="1101.24" fill="url(#SVGID_3_)" width="246.952" height="49.215"/>
		
			<linearGradient id="SVGID_4_" gradientUnits="userSpaceOnUse" x1="1607.5967" y1="-267.6631" x2="1607.5967" y2="-230.4461" gradientTransform="matrix(0 -1 1 0 1437.9214 2404.8398)">
			<stop  offset="0" style="stop-color:#1A171B"/>
			<stop  offset="0.0896" style="stop-color:#1A171B;stop-opacity:0.9104"/>
			<stop  offset="1" style="stop-color:#1A171B;stop-opacity:0"/>
		</linearGradient>
		<rect x="1169.432" y="177.166" fill="url(#SVGID_4_)" width="43.634" height="1240.155"/>
	</g>
</g>
<g id="Ebene_2">
	<g>
		<path fill="#673B15" d="M1249.602,278.158v-6.212h89.43v6.212h-41.2v110.521h-7.194V278.158H1249.602z"/>
		<path fill="#673B15" d="M1254.67,580.111h78.477v6.213h-71.282v46.758h67.032v6.213h-67.032v51.337h72.1v6.213h-79.294V580.111z"
			/>
		<path fill="#673B15" d="M1290.801,890.149h7.849l46.104,116.734h-7.685l-14.715-37.439h-55.913l-14.877,37.439h-7.686
			L1290.801,890.149z M1320.066,963.231l-25.015-66.051h-0.327l-25.996,66.051H1320.066z"/>
		<path fill="#673B15" d="M1238.484,1197.674h10.299l45.614,108.723h0.327l45.124-108.723h10.301v116.733h-7.194v-107.904h-0.326
			l-44.471,107.904h-7.194l-44.96-107.904h-0.327v107.904h-7.192V1197.674z"/>
	</g>
</g>
</svg>
