<?xml version="1.0" encoding="utf-8"?>
<!-- Generator: Adobe Illustrator 15.0.2, SVG Export Plug-In . SVG Version: 6.00 Build 0)  -->
<!DOCTYPE svg PUBLIC "-//W3C//DTD SVG 1.1//EN" "http://www.w3.org/Graphics/SVG/1.1/DTD/svg11.dtd">
<svg version="1.1" id="Ebene_1" xmlns="http://www.w3.org/2000/svg" xmlns:xlink="http://www.w3.org/1999/xlink" x="0px" y="0px"
	 width="850.39px" height="850.39px" viewBox="0 0 850.39 850.39" enable-background="new 0 0 850.39 850.39" xml:space="preserve">
<g>
	<rect y="102.661" fill="#FFFFFF" width="799.516" height="744.482"/>
	<rect y="102.661" opacity="0.53" fill="#CDB54F" enable-background="new    " width="799.516" height="744.482"/>
</g>
<rect y="119.44" fill="#E9683A" width="850.872" height="730.951"/>
<g>
	<path fill="#993637" d="M173.452,218.906v-9.116h54.775v9.116c-8.251,0-12.377,2.649-12.377,7.944l-0.417,11.457V278.7
		c0,15.61,1.465,26.398,4.397,32.363c2.932,5.968,8.283,8.949,16.048,8.949c14.969,0,22.455-13.77,22.455-41.312v-40.393
		l-0.419-11.457c0-4.851-4.153-7.498-12.459-7.944v-9.116h40.643v9.116c-8.642,0.447-12.961,3.094-12.961,7.944l-0.502,11.457V278.7
		c0,32.447-13.868,48.672-41.602,48.672c-29.412,0-44.115-16.225-44.115-48.672v-40.393l-0.422-11.457
		C186.494,221.555,182.146,218.906,173.452,218.906z M204.562,195.49v-20.154h20.154v20.154H204.562z M241.44,195.49v-20.154h20.238
		v20.154H241.44z"/>
	<path fill="#993637" d="M295.129,323.943v-9.116c8.695,0,13.045-2.676,13.045-8.028l0.419-11.373v-57.118l-0.419-11.457
		c0-5.296-4.35-7.945-13.045-7.945v-9.115h60.598c25.723,0,38.586,8.802,38.586,26.405c0,6.965-1.967,12.104-5.898,15.418
		c-3.932,3.313-12.31,6.864-25.137,10.653c24.09,4.464,36.135,15.455,36.135,32.971c0,19.137-14.201,28.705-42.601,28.705
		L295.129,323.943L295.129,323.943z M337.111,257.71h3.69c16.606,0,24.91-6.3,24.91-18.9c0-13.268-8.75-19.903-26.253-19.903h-2.347
		V257.71z M337.111,266.825v32.448c0,7.248,0.698,11.654,2.096,13.213c1.397,1.562,4.779,2.341,10.145,2.341
		c13.024,0,19.538-7.442,19.538-22.328c0-17.115-9.979-25.674-29.935-25.674H337.111L337.111,266.825z"/>
	<path fill="#993637" d="M412.46,323.943v-9.116c8.695,0,13.043-2.676,13.043-8.028l0.421-11.373v-57.118l-0.421-11.457
		c0-5.296-4.348-7.945-13.043-7.945v-9.115h88.563v25.088h-9.117l-0.082-2.258v-6.439c0-4.85-4.139-7.276-12.406-7.276h-24.977
		v39.39h13.718l7.239-0.251c3.424,0,5.135-2.173,5.135-6.523v-3.178h9.115v28.518h-9.115v-3.597c0-4.069-1.711-6.105-5.135-6.105
		l-7.239-0.251l-13.718-0.083v28.601c0,7.861,0.46,13.06,1.383,15.597c0.924,2.538,5.572,3.804,13.954,3.804h6.538l10.642-0.333
		c3.295,0,5.223-0.85,5.78-2.55c0.562-1.701,0.841-5.506,0.841-11.417v-2.843h10.285v26.259L412.46,323.943L412.46,323.943z"/>
	<path fill="#993637" d="M512.979,323.943v-9.116c8.695,0,13.045-2.676,13.045-8.028l0.421-11.373v-57.118l-0.421-11.457
		c0-5.296-4.349-7.945-13.045-7.945v-9.115h56.997c30.02,0,45.029,9.203,45.029,27.608c0,14-7.747,23.788-23.241,29.364
		l18.875,34.104c4.196,7.635,9.162,12.288,14.904,13.959v9.116H591.23l-27.141-53.104h-9.129v24.586l0.418,11.373
		c0,3.011,0.46,4.977,1.38,5.896c0.92,0.92,4.111,1.63,9.575,2.132v9.116L512.979,323.943L512.979,323.943z M554.961,218.906v42.818
		h4.54c17.99,0,26.988-7.666,26.988-22.999c0-13.213-7.961-19.821-23.878-19.821L554.961,218.906L554.961,218.906z"/>
	<path fill="#993637" d="M232.533,424.431v-9.116h54.776v9.116c-8.252,0-12.376,2.648-12.376,7.945l-0.418,11.456v40.392
		c0,15.612,1.466,26.399,4.398,32.366c2.933,5.964,8.281,8.947,16.047,8.947c14.969,0,22.456-13.771,22.456-41.313V443.83
		l-0.419-11.456c0-4.851-4.153-7.498-12.459-7.943v-9.117h40.642v9.117c-8.642,0.446-12.959,3.093-12.959,7.943l-0.504,11.456
		v40.394c0,32.447-13.867,48.672-41.601,48.672c-29.413,0-44.117-16.225-44.117-48.672V443.83l-0.421-11.456
		C245.577,427.079,241.229,424.431,232.533,424.431z"/>
	<path fill="#993637" d="M354.211,529.468v-9.115c6.621,0,10.519-1.157,11.697-3.471c1.178-2.314,1.768-7.625,1.768-15.93v-57.12
		c0-8.307-0.589-13.616-1.768-15.931c-1.177-2.313-5.076-3.471-11.697-3.471v-9.117h27.765l57.119,71.314v-42.804l-0.417-11.453
		c0-5.296-4.351-7.942-13.047-7.942v-9.116h41.228v9.116c-8.642,0-12.963,2.648-12.963,7.945l-0.502,11.456v86.555h-14.3
		l-57.119-72.253v42.818l0.42,11.372c0,5.353,4.349,8.028,13.046,8.028v9.117H354.211L354.211,529.468z"/>
	<path fill="#993637" d="M553.078,416.987v21.158h-9.114C543.293,426.717,536.574,421,523.81,421
		c-13.324,0-19.988,5.349-19.988,16.041c0.028,6.128,6.038,12.343,18.035,18.648l8.369,4.353
		c19.974,10.435,29.963,23.123,29.963,38.062c0,10.539-4.2,18.972-12.599,25.3c-8.4,6.325-19.658,9.491-33.778,9.491
		c-10.213,0-21.96-1.423-35.243-4.266v-24.252h9.115c0,12.935,8.46,19.402,25.384,19.402c14.299,0,21.448-6.105,21.448-18.32
		c-0.016-6.859-5.91-13.382-17.687-19.569l-8.288-4.345c-19.87-10.425-29.806-22.799-29.806-37.126
		c0-21.688,13.617-32.533,40.855-32.533C529.414,411.886,540.577,413.587,553.078,416.987z"/>
</g>
<rect x="744.371" y="119.44" fill="#993637" width="106.501" height="730.95"/>
<polygon fill="#993637" points="0,228.174 107.109,119.44 107.109,119.44 0,119.44 "/>
</svg>
